<?xml version="1.0" encoding="UTF-8" standalone="no"?><svg xmlns="http://www.w3.org/2000/svg" xmlns:xlink="http://www.w3.org/1999/xlink" clip-rule="evenodd" stroke-miterlimit="10" viewBox="0 0 163 31"><desc>SVG generated by Keynote</desc><defs></defs><g transform="matrix(1.00, 0.00, -0.00, -1.00, 0.0, 31.0)"><text xml:space="preserve" font-family="AndaleMono,Andale Mono" font-size="32.0" fill="#000000" transform="matrix(1.00, 0.00, -0.00, -1.00, -4.7, 6.1)">(</text><text xml:space="preserve" font-family="AndaleMono,Andale Mono" font-size="32.0" fill="#000000" transform="matrix(1.00, 0.00, -0.00, -1.00, 14.5, 6.1)">1</text><text xml:space="preserve" font-family="AndaleMono,Andale Mono" font-size="32.0" fill="#000000" transform="matrix(1.00, 0.00, -0.00, -1.00, 33.7, 6.1)">0</text><text xml:space="preserve" font-family="AndaleMono,Andale Mono" font-size="32.0" fill="#000000" transform="matrix(1.00, 0.00, -0.00, -1.00, 53.0, 6.1)">,</text><text xml:space="preserve" font-family="AndaleMono,Andale Mono" font-size="32.0" fill="#000000" transform="matrix(1.00, 0.00, -0.00, -1.00, 72.2, 6.1)"> </text><text xml:space="preserve" font-family="AndaleMono,Andale Mono" font-size="32.0" fill="#000000" transform="matrix(1.00, 0.00, -0.00, -1.00, 91.4, 6.1)">-</text><text xml:space="preserve" font-family="AndaleMono,Andale Mono" font-size="32.0" fill="#000000" transform="matrix(1.00, 0.00, -0.00, -1.00, 110.6, 6.1)">1</text><text xml:space="preserve" font-family="AndaleMono,Andale Mono" font-size="32.0" fill="#000000" transform="matrix(1.00, 0.00, -0.00, -1.00, 129.8, 6.1)">0</text><text xml:space="preserve" font-family="AndaleMono,Andale Mono" font-size="32.0" fill="#000000" transform="matrix(1.00, 0.00, -0.00, -1.00, 149.0, 6.1)">)</text></g></svg>