<?xml version="1.0" encoding="UTF-8" standalone="no"?><svg xmlns="http://www.w3.org/2000/svg" xmlns:xlink="http://www.w3.org/1999/xlink" clip-rule="evenodd" stroke-miterlimit="10" viewBox="0 0 1024 768"><desc>SVG generated by Keynote</desc><defs></defs><g transform="matrix(1.00, 0.00, -0.00, -1.00, 0.0, 768.0)"><path d="M 0.0 768.0 L 1024.0 768.0 L 1024.0 0.0 L 0.0 0.0 Z M 0.0 768.0 " fill="#FEFFFF"></path><text xml:space="preserve" font-family="Helvetica-Light,Helvetica" font-size="80.0" fill="#000000" transform="matrix(1.00, 0.00, -0.00, -1.00, 149.6, 618.4)">H</text><text xml:space="preserve" font-family="Helvetica-Light,Helvetica" font-size="80.0" fill="#000000" transform="matrix(1.00, 0.00, -0.00, -1.00, 207.4, 618.4)">o</text><text xml:space="preserve" font-family="Helvetica-Light,Helvetica" font-size="80.0" fill="#000000" transform="matrix(1.00, 0.00, -0.00, -1.00, 251.9, 618.4)">w</text><text xml:space="preserve" font-family="Helvetica-Light,Helvetica" font-size="80.0" fill="#000000" transform="matrix(1.00, 0.00, -0.00, -1.00, 309.6, 618.4)"> </text><text xml:space="preserve" font-family="Helvetica-Light,Helvetica" font-size="80.0" fill="#000000" transform="matrix(1.00, 0.00, -0.00, -1.00, 331.9, 618.4)">w</text><text xml:space="preserve" font-family="Helvetica-Light,Helvetica" font-size="80.0" fill="#000000" transform="matrix(1.00, 0.00, -0.00, -1.00, 389.6, 618.4)">a</text><text xml:space="preserve" font-family="Helvetica-Light,Helvetica" font-size="80.0" fill="#000000" transform="matrix(1.00, 0.00, -0.00, -1.00, 434.1, 618.4)">s</text><text xml:space="preserve" font-family="Helvetica-Light,Helvetica" font-size="80.0" fill="#000000" transform="matrix(1.00, 0.00, -0.00, -1.00, 474.1, 618.4)"> </text><text xml:space="preserve" font-family="Helvetica-Light,Helvetica" font-size="80.0" fill="#000000" transform="matrix(1.00, 0.00, -0.00, -1.00, 496.4, 618.4)">t</text><text xml:space="preserve" font-family="Helvetica-Light,Helvetica" font-size="80.0" fill="#000000" transform="matrix(1.00, 0.00, -0.00, -1.00, 518.6, 618.4)">h</text><text xml:space="preserve" font-family="Helvetica-Light,Helvetica" font-size="80.0" fill="#000000" transform="matrix(1.00, 0.00, -0.00, -1.00, 563.1, 618.4)">a</text><text xml:space="preserve" font-family="Helvetica-Light,Helvetica" font-size="80.0" fill="#000000" transform="matrix(1.00, 0.00, -0.00, -1.00, 607.6, 618.4)">t</text><text xml:space="preserve" font-family="Helvetica-Light,Helvetica" font-size="80.0" fill="#000000" transform="matrix(1.00, 0.00, -0.00, -1.00, 629.8, 618.4)"> </text><text xml:space="preserve" font-family="Helvetica-Light,Helvetica" font-size="80.0" fill="#000000" transform="matrix(1.00, 0.00, -0.00, -1.00, 652.0, 618.4)">d</text><text xml:space="preserve" font-family="Helvetica-Light,Helvetica" font-size="80.0" fill="#000000" transform="matrix(1.00, 0.00, -0.00, -1.00, 700.9, 618.4)">o</text><text xml:space="preserve" font-family="Helvetica-Light,Helvetica" font-size="80.0" fill="#000000" transform="matrix(1.00, 0.00, -0.00, -1.00, 745.4, 618.4)">n</text><text xml:space="preserve" font-family="Helvetica-Light,Helvetica" font-size="80.0" fill="#000000" transform="matrix(1.00, 0.00, -0.00, -1.00, 789.9, 618.4)">e</text><text xml:space="preserve" font-family="Helvetica-Light,Helvetica" font-size="80.0" fill="#000000" transform="matrix(1.00, 0.00, -0.00, -1.00, 834.4, 618.4)">?</text><text xml:space="preserve" font-family="Helvetica-Bold,Helvetica" font-weight="bold" font-size="49.0" fill="#000000" transform="matrix(1.00, 0.00, -0.00, -1.00, 373.1, 407.3)">F</text><text xml:space="preserve" font-family="Helvetica-Bold,Helvetica" font-weight="bold" font-size="49.0" fill="#000000" transform="matrix(1.00, 0.00, -0.00, -1.00, 403.1, 407.3)">i</text><text xml:space="preserve" font-family="Helvetica-Bold,Helvetica" font-weight="bold" font-size="49.0" fill="#000000" transform="matrix(1.00, 0.00, -0.00, -1.00, 416.7, 407.3)">r</text><text xml:space="preserve" font-family="Helvetica-Bold,Helvetica" font-weight="bold" font-size="49.0" fill="#000000" transform="matrix(1.00, 0.00, -0.00, -1.00, 435.7, 407.3)">s</text><text xml:space="preserve" font-family="Helvetica-Bold,Helvetica" font-weight="bold" font-size="49.0" fill="#000000" transform="matrix(1.00, 0.00, -0.00, -1.00, 463.0, 407.3)">t</text><text xml:space="preserve" font-family="Helvetica-Bold,Helvetica" font-weight="bold" font-size="49.0" fill="#000000" transform="matrix(1.00, 0.00, -0.00, -1.00, 479.3, 407.3)"> </text><text xml:space="preserve" font-family="Helvetica-Bold,Helvetica" font-weight="bold" font-size="49.0" fill="#000000" transform="matrix(1.00, 0.00, -0.00, -1.00, 492.9, 407.3)">g</text><text xml:space="preserve" font-family="Helvetica-Bold,Helvetica" font-weight="bold" font-size="49.0" fill="#000000" transform="matrix(1.00, 0.00, -0.00, -1.00, 522.8, 407.3)">u</text><text xml:space="preserve" font-family="Helvetica-Bold,Helvetica" font-weight="bold" font-size="49.0" fill="#000000" transform="matrix(1.00, 0.00, -0.00, -1.00, 552.8, 407.3)">e</text><text xml:space="preserve" font-family="Helvetica-Bold,Helvetica" font-weight="bold" font-size="49.0" fill="#000000" transform="matrix(1.00, 0.00, -0.00, -1.00, 580.0, 407.3)">s</text><text xml:space="preserve" font-family="Helvetica-Bold,Helvetica" font-weight="bold" font-size="49.0" fill="#000000" transform="matrix(1.00, 0.00, -0.00, -1.00, 607.3, 407.3)">s</text><text xml:space="preserve" font-family="Helvetica-Bold,Helvetica" font-weight="bold" font-size="49.0" fill="#000000" transform="matrix(1.00, 0.00, -0.00, -1.00, 634.5, 407.3)">:</text><text xml:space="preserve" font-family="Helvetica-Bold,Helvetica" font-weight="bold" font-size="49.0" fill="#000000" transform="matrix(1.00, 0.00, -0.00, -1.00, 249.2, 348.3)">v</text><text xml:space="preserve" font-family="Helvetica-Bold,Helvetica" font-weight="bold" font-size="49.0" fill="#000000" transform="matrix(1.00, 0.00, -0.00, -1.00, 276.5, 348.3)">a</text><text xml:space="preserve" font-family="Helvetica-Bold,Helvetica" font-weight="bold" font-size="49.0" fill="#000000" transform="matrix(1.00, 0.00, -0.00, -1.00, 303.8, 348.3)">r</text><text xml:space="preserve" font-family="Helvetica-Bold,Helvetica" font-weight="bold" font-size="49.0" fill="#000000" transform="matrix(1.00, 0.00, -0.00, -1.00, 322.8, 348.3)">i</text><text xml:space="preserve" font-family="Helvetica-Bold,Helvetica" font-weight="bold" font-size="49.0" fill="#000000" transform="matrix(1.00, 0.00, -0.00, -1.00, 336.4, 348.3)">a</text><text xml:space="preserve" font-family="Helvetica-Bold,Helvetica" font-weight="bold" font-size="49.0" fill="#000000" transform="matrix(1.00, 0.00, -0.00, -1.00, 363.7, 348.3)">b</text><text xml:space="preserve" font-family="Helvetica-Bold,Helvetica" font-weight="bold" font-size="49.0" fill="#000000" transform="matrix(1.00, 0.00, -0.00, -1.00, 393.6, 348.3)">l</text><text xml:space="preserve" font-family="Helvetica-Bold,Helvetica" font-weight="bold" font-size="49.0" fill="#000000" transform="matrix(1.00, 0.00, -0.00, -1.00, 407.2, 348.3)">e</text><text xml:space="preserve" font-family="Helvetica-Bold,Helvetica" font-weight="bold" font-size="49.0" fill="#000000" transform="matrix(1.00, 0.00, -0.00, -1.00, 434.5, 348.3)"> </text><text xml:space="preserve" font-family="Helvetica-Bold,Helvetica" font-weight="bold" font-size="49.0" fill="#000000" transform="matrix(1.00, 0.00, -0.00, -1.00, 448.1, 348.3)">s</text><text xml:space="preserve" font-family="Helvetica-Bold,Helvetica" font-weight="bold" font-size="49.0" fill="#000000" transform="matrix(1.00, 0.00, -0.00, -1.00, 475.4, 348.3)">i</text><text xml:space="preserve" font-family="Helvetica-Bold,Helvetica" font-weight="bold" font-size="49.0" fill="#000000" transform="matrix(1.00, 0.00, -0.00, -1.00, 489.0, 348.3)">z</text><text xml:space="preserve" font-family="Helvetica-Bold,Helvetica" font-weight="bold" font-size="49.0" fill="#000000" transform="matrix(1.00, 0.00, -0.00, -1.00, 513.5, 348.3)">e</text><text xml:space="preserve" font-family="Helvetica-Bold,Helvetica" font-weight="bold" font-size="49.0" fill="#000000" transform="matrix(1.00, 0.00, -0.00, -1.00, 540.7, 348.3)">d</text><text xml:space="preserve" font-family="Helvetica-Bold,Helvetica" font-weight="bold" font-size="49.0" fill="#000000" transform="matrix(1.00, 0.00, -0.00, -1.00, 570.6, 348.3)"> </text><text xml:space="preserve" font-family="Helvetica-Bold,Helvetica" font-weight="bold" font-size="49.0" fill="#000000" transform="matrix(1.00, 0.00, -0.00, -1.00, 584.2, 348.3)">p</text><text xml:space="preserve" font-family="Helvetica-Bold,Helvetica" font-weight="bold" font-size="49.0" fill="#000000" transform="matrix(1.00, 0.00, -0.00, -1.00, 614.2, 348.3)">a</text><text xml:space="preserve" font-family="Helvetica-Bold,Helvetica" font-weight="bold" font-size="49.0" fill="#000000" transform="matrix(1.00, 0.00, -0.00, -1.00, 641.4, 348.3)">d</text><text xml:space="preserve" font-family="Helvetica-Bold,Helvetica" font-weight="bold" font-size="49.0" fill="#000000" transform="matrix(1.00, 0.00, -0.00, -1.00, 671.3, 348.3)">d</text><text xml:space="preserve" font-family="Helvetica-Bold,Helvetica" font-weight="bold" font-size="49.0" fill="#000000" transform="matrix(1.00, 0.00, -0.00, -1.00, 701.3, 348.3)">i</text><text xml:space="preserve" font-family="Helvetica-Bold,Helvetica" font-weight="bold" font-size="49.0" fill="#000000" transform="matrix(1.00, 0.00, -0.00, -1.00, 714.9, 348.3)">n</text><text xml:space="preserve" font-family="Helvetica-Bold,Helvetica" font-weight="bold" font-size="49.0" fill="#000000" transform="matrix(1.00, 0.00, -0.00, -1.00, 744.8, 348.3)">g</text></g></svg>