<?xml version="1.0" encoding="UTF-8" standalone="no"?><svg xmlns="http://www.w3.org/2000/svg" xmlns:xlink="http://www.w3.org/1999/xlink" clip-rule="evenodd" stroke-miterlimit="10" viewBox="0 0 1024 768"><desc>SVG generated by Keynote</desc><defs></defs><g transform="matrix(1.00, 0.00, -0.00, -1.00, 0.0, 768.0)"><path d="M 0.0 768.0 L 1024.0 768.0 L 1024.0 0.0 L 0.0 0.0 Z M 0.0 768.0 " fill="#FEFFFF"></path><g><clipPath id="clip0x6080008bf320"><path d="M 1.0 768.0 L 1024.0 768.0 L 1024.0 0.0 L 1.0 0.0 Z M 0.6 768.0 "></path></clipPath><g clip-path="url(#clip0x6080008bf320)"><image xlink:href="../../B2D19838-B6B9-4A41-8A0A-2715D52181D9/assets/3F506D71715F116335A034102F8074FA.png" width="2420.00" height="2074.00" transform="matrix(0.37, 0.00, -0.00, -0.37, 64.4, 768.0)"></image></g></g><g opacity="0.87"><g><clipPath id="clip0x600000ca19e0"><path d="M 19.0 207.0 L 326.0 207.0 L 326.0 534.0 L 19.0 534.0 Z M 19.0 207.0 "></path></clipPath><g clip-path="url(#clip0x600000ca19e0)"><image xlink:href="../../4C6BFD71-4BDB-4C70-8EEC-19172E800804/assets/800BEF5983062D97ECD2BE2FA87C7426.png" width="300.00" height="322.00" transform="matrix(1.00, 0.00, -0.00, -1.00, 24.0, 529.9)" opacity="0.31"></image><path d="M 24.0 529.0 L 321.0 529.0 L 321.0 212.0 L 24.0 212.0 Z M 24.4 529.2 " fill="#5E317B"></path></g></g></g><g opacity="0.87"><g><clipPath id="clip0x600000ca4b60"><path d="M 225.0 214.0 L 357.0 214.0 L 357.0 364.0 L 225.0 364.0 Z M 225.0 214.0 "></path></clipPath><g clip-path="url(#clip0x600000ca4b60)"><image xlink:href="../../4C6BFD71-4BDB-4C70-8EEC-19172E800804/assets/E6126AF3451134ABE780DFAA726A04DE.png" width="126.00" height="144.00" transform="matrix(1.00, 0.00, -0.00, -1.00, 229.5, 359.6)" opacity="0.31"></image><path d="M 230.0 359.0 L 352.0 359.0 L 352.0 219.0 L 230.0 219.0 Z M 230.0 358.9 " fill="#5E317B"></path></g></g></g><g opacity="0.87"><g><clipPath id="clip0x600000ca0540"><path d="M 293.0 156.0 L 425.0 156.0 L 425.0 323.0 L 293.0 323.0 Z M 293.0 156.0 "></path></clipPath><g clip-path="url(#clip0x600000ca0540)"><image xlink:href="../../4C6BFD71-4BDB-4C70-8EEC-19172E800804/assets/E29A87DC5D615FC6CA9BE65D51052938.png" width="126.00" height="162.00" transform="matrix(1.00, 0.00, -0.00, -1.00, 297.5, 318.7)" opacity="0.31"></image><path d="M 298.0 318.0 L 420.0 318.0 L 420.0 160.0 L 298.0 160.0 Z M 298.0 318.0 " fill="#5E317B"></path></g></g></g><g opacity="0.87"><g><clipPath id="clip0x608000aa00c0"><path d="M 322.0 134.0 L 454.0 134.0 L 454.0 276.0 L 322.0 276.0 Z M 322.0 134.0 "></path></clipPath><g clip-path="url(#clip0x608000aa00c0)"><image xlink:href="../../4C6BFD71-4BDB-4C70-8EEC-19172E800804/assets/C4014CEF68FCB4E26A3BC8D0A33AC6B2.png" width="126.00" height="136.00" transform="matrix(1.00, 0.00, -0.00, -1.00, 326.5, 271.7)" opacity="0.31"></image><path d="M 327.0 271.0 L 449.0 271.0 L 449.0 139.0 L 327.0 139.0 Z M 327.0 271.0 " fill="#5E317B"></path></g></g></g><g opacity="0.87"><g><clipPath id="clip0x6080008bf740"><path d="M 356.0 117.0 L 458.0 117.0 L 458.0 206.0 L 356.0 206.0 Z M 356.0 117.0 "></path></clipPath><g clip-path="url(#clip0x6080008bf740)"><image xlink:href="../../4C6BFD71-4BDB-4C70-8EEC-19172E800804/assets/DE67C48D9743D9C94574C05097FF3133.png" width="96.00" height="83.00" transform="matrix(1.00, 0.00, -0.00, -1.00, 360.5, 201.7)" opacity="0.31"></image><path d="M 361.0 201.0 L 453.0 201.0 L 453.0 122.0 L 361.0 122.0 Z M 361.0 201.0 " fill="#5E317B"></path></g></g></g><g opacity="0.87"><g><clipPath id="clip0x608000aa02a0"><path d="M 393.0 92.0 L 452.0 92.0 L 452.0 147.0 L 393.0 147.0 Z M 393.0 92.0 "></path></clipPath><g clip-path="url(#clip0x608000aa02a0)"><image xlink:href="../../4C6BFD71-4BDB-4C70-8EEC-19172E800804/assets/FF4BE9F105A44E8A3300261038218CAF.png" width="53.00" height="50.00" transform="matrix(1.00, 0.00, -0.00, -0.99, 397.5, 142.7)" opacity="0.31"></image><path d="M 398.0 142.0 L 447.0 142.0 L 447.0 96.0 L 398.0 96.0 Z M 398.0 142.0 " fill="#5E317B"></path></g></g></g><g opacity="0.87"><g><clipPath id="clip0x600000ca4800"><path d="M 509.0 311.0 L 747.0 311.0 L 747.0 542.0 L 509.0 542.0 Z M 509.0 311.0 "></path></clipPath><g clip-path="url(#clip0x600000ca4800)"><image xlink:href="../../4C6BFD71-4BDB-4C70-8EEC-19172E800804/assets/B39914304737BD7E9E8B9F46ED2379EA.png" width="231.00" height="225.00" transform="matrix(1.00, 0.00, -0.00, -1.00, 513.8, 537.7)" opacity="0.31"></image><path d="M 514.0 537.0 L 742.0 537.0 L 742.0 316.0 L 514.0 316.0 Z M 514.3 537.0 " fill="#5E317B"></path></g></g></g><g opacity="0.87"><g><clipPath id="clip0x600000abfe60"><path d="M 400.0 238.0 L 532.0 238.0 L 532.0 364.0 L 400.0 364.0 Z M 400.0 238.0 "></path></clipPath><g clip-path="url(#clip0x600000abfe60)"><image xlink:href="../../4C6BFD71-4BDB-4C70-8EEC-19172E800804/assets/6FE8DADBE46F23B13BD01E2A0AB75317.png" width="126.00" height="120.00" transform="matrix(1.00, 0.00, -0.00, -1.00, 404.5, 359.6)" opacity="0.31"></image><path d="M 405.0 359.0 L 527.0 359.0 L 527.0 243.0 L 405.0 243.0 Z M 405.0 358.9 " fill="#5E317B"></path></g></g></g><g opacity="0.87"><g><clipPath id="clip0x600000ca78c0"><path d="M 716.0 283.0 L 848.0 283.0 L 848.0 409.0 L 716.0 409.0 Z M 716.0 283.0 "></path></clipPath><g clip-path="url(#clip0x600000ca78c0)"><image xlink:href="../../4C6BFD71-4BDB-4C70-8EEC-19172E800804/assets/6FE8DADBE46F23B13BD01E2A0AB75317.png" width="126.00" height="120.00" transform="matrix(1.00, 0.00, -0.00, -1.00, 720.5, 404.6)" opacity="0.31"></image><path d="M 721.0 404.0 L 843.0 404.0 L 843.0 288.0 L 721.0 288.0 Z M 721.0 403.9 " fill="#5E317B"></path></g></g></g><g opacity="0.87"><g><clipPath id="clip0x600000ca7500"><path d="M 649.0 222.0 L 742.0 222.0 L 742.0 330.0 L 649.0 330.0 Z M 649.0 222.0 "></path></clipPath><g clip-path="url(#clip0x600000ca7500)"><image xlink:href="../../4C6BFD71-4BDB-4C70-8EEC-19172E800804/assets/004BDA3A948EFEDA1A2351A2E1D58199.png" width="87.00" height="103.00" transform="matrix(0.99, 0.00, -0.00, -1.00, 653.5, 326.2)" opacity="0.31"></image><path d="M 654.0 325.0 L 737.0 325.0 L 737.0 226.0 L 654.0 226.0 Z M 654.0 325.5 " fill="#5E317B"></path></g></g></g><g opacity="0.87"><g><clipPath id="clip0x600000ca7020"><path d="M 815.0 233.0 L 908.0 233.0 L 908.0 345.0 L 815.0 345.0 Z M 815.0 233.0 "></path></clipPath><g clip-path="url(#clip0x600000ca7020)"><image xlink:href="../../4C6BFD71-4BDB-4C70-8EEC-19172E800804/assets/80BC2D11862819105AC26668DDB6AB55.png" width="87.00" height="106.00" transform="matrix(0.99, 0.00, -0.00, -1.00, 819.5, 340.9)" opacity="0.31"></image><path d="M 820.0 340.0 L 903.0 340.0 L 903.0 238.0 L 820.0 238.0 Z M 820.0 340.2 " fill="#5E317B"></path></g></g></g><g opacity="0.87"><g><clipPath id="clip0x6080008bfd40"><path d="M 867.0 169.0 L 960.0 169.0 L 960.0 257.0 L 867.0 257.0 Z M 867.0 169.0 "></path></clipPath><g clip-path="url(#clip0x6080008bfd40)"><image xlink:href="../../4C6BFD71-4BDB-4C70-8EEC-19172E800804/assets/24E4DB62677741B676614F43F5BA1DF2.png" width="87.00" height="83.00" transform="matrix(0.99, 0.00, -0.00, -1.00, 871.5, 253.0)" opacity="0.31"></image><path d="M 872.0 252.0 L 955.0 252.0 L 955.0 173.0 L 872.0 173.0 Z M 872.0 252.3 " fill="#5E317B"></path></g></g></g><g opacity="0.87"><g><clipPath id="clip0x608000aa0780"><path d="M 593.0 169.0 L 686.0 169.0 L 686.0 257.0 L 593.0 257.0 Z M 593.0 169.0 "></path></clipPath><g clip-path="url(#clip0x608000aa0780)"><image xlink:href="../../4C6BFD71-4BDB-4C70-8EEC-19172E800804/assets/C47A1789A60629205BC5B54018680A0C.png" width="87.00" height="83.00" transform="matrix(0.99, 0.00, -0.00, -1.00, 598.0, 253.0)" opacity="0.31"></image><path d="M 599.0 252.0 L 681.0 252.0 L 681.0 173.0 L 599.0 173.0 Z M 598.5 252.3 " fill="#5E317B"></path></g></g></g><g opacity="0.87"><g><clipPath id="clip0x608000aa09c0"><path d="M 450.0 161.0 L 543.0 161.0 L 543.0 249.0 L 450.0 249.0 Z M 450.0 161.0 "></path></clipPath><g clip-path="url(#clip0x608000aa09c0)"><image xlink:href="../../4C6BFD71-4BDB-4C70-8EEC-19172E800804/assets/59419A969510351CF4F9CF257FADBCF0.png" width="87.00" height="83.00" transform="matrix(0.99, 0.00, -0.00, -1.00, 454.5, 245.2)" opacity="0.31"></image><path d="M 455.0 244.0 L 538.0 244.0 L 538.0 166.0 L 455.0 166.0 Z M 455.0 244.5 " fill="#5E317B"></path></g></g></g><g opacity="0.87"><g><clipPath id="clip0x608000aa11a0"><path d="M 616.0 135.0 L 689.0 135.0 L 689.0 206.0 L 616.0 206.0 Z M 616.0 135.0 "></path></clipPath><g clip-path="url(#clip0x608000aa11a0)"><image xlink:href="../../4C6BFD71-4BDB-4C70-8EEC-19172E800804/assets/34C9EEBA587B8D696849247E12A1478C.png" width="67.00" height="65.00" transform="matrix(1.00, 0.00, -0.00, -1.00, 620.8, 201.7)" opacity="0.31"></image><path d="M 621.0 201.0 L 684.0 201.0 L 684.0 140.0 L 621.0 140.0 Z M 621.3 201.0 " fill="#5E317B"></path></g></g></g><g opacity="0.87"><g><clipPath id="clip0x608000aa0cc0"><path d="M 668.0 135.0 L 741.0 135.0 L 741.0 206.0 L 668.0 206.0 Z M 668.0 135.0 "></path></clipPath><g clip-path="url(#clip0x608000aa0cc0)"><image xlink:href="../../4C6BFD71-4BDB-4C70-8EEC-19172E800804/assets/CE7B2FE13A1BF68D66A46EA3E8B2B20B.png" width="67.00" height="65.00" transform="matrix(1.00, 0.00, -0.00, -1.00, 672.9, 201.7)" opacity="0.31"></image><path d="M 673.0 201.0 L 736.0 201.0 L 736.0 140.0 L 673.0 140.0 Z M 673.3 201.0 " fill="#5E317B"></path></g></g></g><g opacity="0.87"><g><clipPath id="clip0x600000ca7860"><path d="M 724.0 135.0 L 797.0 135.0 L 797.0 206.0 L 724.0 206.0 Z M 724.0 135.0 "></path></clipPath><g clip-path="url(#clip0x600000ca7860)"><image xlink:href="../../4C6BFD71-4BDB-4C70-8EEC-19172E800804/assets/34C9EEBA587B8D696849247E12A1478C.png" width="67.00" height="65.00" transform="matrix(1.00, 0.00, -0.00, -1.00, 728.8, 201.7)" opacity="0.31"></image><path d="M 729.0 201.0 L 792.0 201.0 L 792.0 140.0 L 729.0 140.0 Z M 729.3 201.0 " fill="#5E317B"></path></g></g></g><g opacity="0.87"><g><clipPath id="clip0x600000ca7620"><path d="M 832.0 135.0 L 905.0 135.0 L 905.0 206.0 L 832.0 206.0 Z M 832.0 135.0 "></path></clipPath><g clip-path="url(#clip0x600000ca7620)"><image xlink:href="../../4C6BFD71-4BDB-4C70-8EEC-19172E800804/assets/34C9EEBA587B8D696849247E12A1478C.png" width="67.00" height="65.00" transform="matrix(1.00, 0.00, -0.00, -1.00, 836.8, 201.7)" opacity="0.31"></image><path d="M 837.0 201.0 L 900.0 201.0 L 900.0 140.0 L 837.0 140.0 Z M 837.3 201.0 " fill="#5E317B"></path></g></g></g><g opacity="0.87"><g><clipPath id="clip0x600000ca7200"><path d="M 877.0 135.0 L 950.0 135.0 L 950.0 206.0 L 877.0 206.0 Z M 877.0 135.0 "></path></clipPath><g clip-path="url(#clip0x600000ca7200)"><image xlink:href="../../4C6BFD71-4BDB-4C70-8EEC-19172E800804/assets/44EB0B79BF091851A42846F201B79B03.png" width="67.00" height="65.00" transform="matrix(1.00, 0.00, -0.00, -1.00, 881.4, 201.8)" opacity="0.31"></image><path d="M 882.0 201.0 L 945.0 201.0 L 945.0 140.0 L 882.0 140.0 Z M 881.8 201.1 " fill="#5E317B"></path></g></g></g><g opacity="0.87"><g><clipPath id="clip0x600000ca6c00"><path d="M 756.0 85.0 L 808.0 85.0 L 808.0 156.0 L 756.0 156.0 Z M 756.0 85.0 "></path></clipPath><g clip-path="url(#clip0x600000ca6c00)"><image xlink:href="../../4C6BFD71-4BDB-4C70-8EEC-19172E800804/assets/8D14155B8FB4638788779A622D858C64.png" width="46.00" height="65.00" transform="matrix(0.99, 0.00, -0.00, -1.00, 760.4, 151.7)" opacity="0.31"></image><path d="M 761.0 151.0 L 803.0 151.0 L 803.0 90.0 L 761.0 90.0 Z M 760.9 151.0 " fill="#5E317B"></path></g></g></g><g opacity="0.87"><g><clipPath id="clip0x608000aa1440"><path d="M 650.0 101.0 L 702.0 101.0 L 702.0 156.0 L 650.0 156.0 Z M 650.0 101.0 "></path></clipPath><g clip-path="url(#clip0x608000aa1440)"><image xlink:href="../../4C6BFD71-4BDB-4C70-8EEC-19172E800804/assets/3D6AF4F6C51DD16E94ADD129E90D4B72.png" width="46.00" height="50.00" transform="matrix(0.99, 0.00, -0.00, -0.99, 654.4, 151.7)" opacity="0.31"></image><path d="M 655.0 151.0 L 697.0 151.0 L 697.0 105.0 L 655.0 105.0 Z M 654.9 151.0 " fill="#5E317B"></path></g></g></g><g opacity="0.87"><g><clipPath id="clip0x608000aa17a0"><path d="M 603.0 85.0 L 654.0 85.0 L 654.0 156.0 L 603.0 156.0 Z M 603.0 85.0 "></path></clipPath><g clip-path="url(#clip0x608000aa17a0)"><image xlink:href="../../4C6BFD71-4BDB-4C70-8EEC-19172E800804/assets/73FC2BD083D4A108F6A0F967DCA43CE2.png" width="46.00" height="65.00" transform="matrix(0.99, 0.00, -0.00, -1.00, 607.2, 151.7)" opacity="0.31"></image><path d="M 608.0 151.0 L 649.0 151.0 L 649.0 90.0 L 608.0 90.0 Z M 607.7 151.0 " fill="#5E317B"></path></g></g></g><g opacity="0.87"><g><clipPath id="clip0x608000aa1860"><path d="M 564.0 83.0 L 616.0 83.0 L 616.0 156.0 L 564.0 156.0 Z M 564.0 83.0 "></path></clipPath><g clip-path="url(#clip0x608000aa1860)"><image xlink:href="../../4C6BFD71-4BDB-4C70-8EEC-19172E800804/assets/1F50185BE4F757D296F42E0BE8D03743.png" width="46.00" height="67.00" transform="matrix(0.99, 0.00, -0.00, -1.00, 568.9, 151.7)" opacity="0.31"></image><path d="M 569.0 151.0 L 611.0 151.0 L 611.0 88.0 L 569.0 88.0 Z M 569.4 151.0 " fill="#5E317B"></path></g></g></g><g opacity="0.87"><g><clipPath id="clip0x600000ca6cc0"><path d="M 511.0 84.0 L 563.0 84.0 L 563.0 147.0 L 511.0 147.0 Z M 511.0 84.0 "></path></clipPath><g clip-path="url(#clip0x600000ca6cc0)"><image xlink:href="../../4C6BFD71-4BDB-4C70-8EEC-19172E800804/assets/5940694AE8305E269BEA67D1EBA8A788.png" width="46.00" height="57.00" transform="matrix(0.99, 0.00, -0.00, -1.00, 515.4, 142.7)" opacity="0.31"></image><path d="M 516.0 142.0 L 558.0 142.0 L 558.0 89.0 L 516.0 89.0 Z M 515.9 142.0 " fill="#5E317B"></path></g></g></g><g opacity="0.87"><g><clipPath id="clip0x600000ca81c0"><path d="M 518.0 127.0 L 591.0 127.0 L 591.0 198.0 L 518.0 198.0 Z M 518.0 127.0 "></path></clipPath><g clip-path="url(#clip0x600000ca81c0)"><image xlink:href="../../4C6BFD71-4BDB-4C70-8EEC-19172E800804/assets/38D2FAB63426B1C5FB4867BD75124140.png" width="67.00" height="65.00" transform="matrix(1.00, 0.00, -0.00, -1.00, 523.0, 193.5)" opacity="0.31"></image><path d="M 524.0 193.0 L 586.0 193.0 L 586.0 132.0 L 524.0 132.0 Z M 523.5 192.8 " fill="#5E317B"></path></g></g></g><g opacity="0.87"><g><clipPath id="clip0x600000ca84c0"><path d="M 476.0 127.0 L 549.0 127.0 L 549.0 198.0 L 476.0 198.0 Z M 476.0 127.0 "></path></clipPath><g clip-path="url(#clip0x600000ca84c0)"><image xlink:href="../../4C6BFD71-4BDB-4C70-8EEC-19172E800804/assets/0B2F50C7BD79E5F250DA8FFE5DA73110.png" width="67.00" height="65.00" transform="matrix(1.00, 0.00, -0.00, -1.00, 480.6, 193.5)" opacity="0.31"></image><path d="M 481.0 193.0 L 544.0 193.0 L 544.0 132.0 L 481.0 132.0 Z M 481.0 192.8 " fill="#5E317B"></path></g></g></g><g opacity="0.87"><g><clipPath id="clip0x600000ca8820"><path d="M 416.0 32.0 L 447.0 32.0 L 447.0 95.0 L 416.0 95.0 Z M 416.0 32.0 "></path></clipPath><g clip-path="url(#clip0x600000ca8820)"><image xlink:href="../../4C6BFD71-4BDB-4C70-8EEC-19172E800804/assets/D4AEE101E9317866DD43F6C157CB211B.png" width="25.00" height="57.00" transform="matrix(0.99, 0.00, -0.00, -1.00, 420.4, 90.7)" opacity="0.31"></image><path d="M 421.0 90.0 L 442.0 90.0 L 442.0 37.0 L 421.0 37.0 Z M 420.9 90.0 " fill="#5E317B"></path></g></g></g><g opacity="0.87"><g><clipPath id="clip0x600000ca8b80"><path d="M 432.0 32.0 L 463.0 32.0 L 463.0 95.0 L 432.0 95.0 Z M 432.0 32.0 "></path></clipPath><g clip-path="url(#clip0x600000ca8b80)"><image xlink:href="../../4C6BFD71-4BDB-4C70-8EEC-19172E800804/assets/D4AEE101E9317866DD43F6C157CB211B.png" width="25.00" height="57.00" transform="matrix(0.99, 0.00, -0.00, -1.00, 436.4, 90.7)" opacity="0.31"></image><path d="M 437.0 90.0 L 458.0 90.0 L 458.0 37.0 L 437.0 37.0 Z M 436.9 90.0 " fill="#5E317B"></path></g></g></g><g opacity="0.87"><g><clipPath id="clip0x600000ca8ee0"><path d="M 530.0 36.0 L 561.0 36.0 L 561.0 99.0 L 530.0 99.0 Z M 530.0 36.0 "></path></clipPath><g clip-path="url(#clip0x600000ca8ee0)"><image xlink:href="../../4C6BFD71-4BDB-4C70-8EEC-19172E800804/assets/53FCB599C946922DD645CA8FFE143687.png" width="25.00" height="57.00" transform="matrix(0.99, 0.00, -0.00, -1.00, 534.4, 95.1)" opacity="0.31"></image><path d="M 535.0 94.0 L 556.0 94.0 L 556.0 41.0 L 535.0 41.0 Z M 534.9 94.4 " fill="#5E317B"></path></g></g></g><g opacity="0.87"><g><clipPath id="clip0x600000ca9240"><path d="M 540.0 36.0 L 571.0 36.0 L 571.0 99.0 L 540.0 99.0 Z M 540.0 36.0 "></path></clipPath><g clip-path="url(#clip0x600000ca9240)"><image xlink:href="../../4C6BFD71-4BDB-4C70-8EEC-19172E800804/assets/AB936376BCA6C83B188E072D714F7BEA.png" width="25.00" height="57.00" transform="matrix(0.99, 0.00, -0.00, -1.00, 544.4, 95.1)" opacity="0.31"></image><path d="M 545.0 94.0 L 566.0 94.0 L 566.0 41.0 L 545.0 41.0 Z M 544.9 94.4 " fill="#5E317B"></path></g></g></g><g opacity="0.87"><g><clipPath id="clip0x608000aa1bc0"><path d="M 565.0 36.0 L 596.0 36.0 L 596.0 99.0 L 565.0 99.0 Z M 565.0 36.0 "></path></clipPath><g clip-path="url(#clip0x608000aa1bc0)"><image xlink:href="../../4C6BFD71-4BDB-4C70-8EEC-19172E800804/assets/BEE0C87BB0FFBBC855E774BB1411325E.png" width="25.00" height="57.00" transform="matrix(0.99, 0.00, -0.00, -1.00, 569.8, 95.1)" opacity="0.31"></image><path d="M 570.0 94.0 L 591.0 94.0 L 591.0 41.0 L 570.0 41.0 Z M 570.3 94.4 " fill="#5E317B"></path></g></g></g><g opacity="0.87"><g><clipPath id="clip0x600000ca9540"><path d="M 575.0 36.0 L 606.0 36.0 L 606.0 99.0 L 575.0 99.0 Z M 575.0 36.0 "></path></clipPath><g clip-path="url(#clip0x600000ca9540)"><image xlink:href="../../4C6BFD71-4BDB-4C70-8EEC-19172E800804/assets/738A4F50676AFA5A8914FC34772F06F9.png" width="25.00" height="57.00" transform="matrix(0.99, 0.00, -0.00, -1.00, 579.4, 95.1)" opacity="0.31"></image><path d="M 580.0 94.0 L 601.0 94.0 L 601.0 41.0 L 580.0 41.0 Z M 579.9 94.4 " fill="#5E317B"></path></g></g></g><g opacity="0.87"><g><clipPath id="clip0x600000ca98a0"><path d="M 613.0 36.0 L 644.0 36.0 L 644.0 99.0 L 613.0 99.0 Z M 613.0 36.0 "></path></clipPath><g clip-path="url(#clip0x600000ca98a0)"><image xlink:href="../../4C6BFD71-4BDB-4C70-8EEC-19172E800804/assets/66DD4825225E5702DBE64FD0DE35B756.png" width="25.00" height="57.00" transform="matrix(0.99, 0.00, -0.00, -1.00, 617.6, 95.1)" opacity="0.31"></image><path d="M 618.0 94.0 L 639.0 94.0 L 639.0 41.0 L 618.0 41.0 Z M 618.0 94.4 " fill="#5E317B"></path></g></g></g><g opacity="0.87"><g><clipPath id="clip0x600000ca9c00"><path d="M 601.0 36.0 L 632.0 36.0 L 632.0 99.0 L 601.0 99.0 Z M 601.0 36.0 "></path></clipPath><g clip-path="url(#clip0x600000ca9c00)"><image xlink:href="../../4C6BFD71-4BDB-4C70-8EEC-19172E800804/assets/D85692A2FD136D3303B7A1A7A564CD91.png" width="25.00" height="57.00" transform="matrix(0.99, 0.00, -0.00, -1.00, 605.8, 95.1)" opacity="0.31"></image><path d="M 606.0 94.0 L 627.0 94.0 L 627.0 41.0 L 606.0 41.0 Z M 606.3 94.4 " fill="#5E317B"></path></g></g></g><g opacity="0.87"><g><clipPath id="clip0x600000ca9f60"><path d="M 684.0 36.0 L 715.0 36.0 L 715.0 99.0 L 684.0 99.0 Z M 684.0 36.0 "></path></clipPath><g clip-path="url(#clip0x600000ca9f60)"><image xlink:href="../../4C6BFD71-4BDB-4C70-8EEC-19172E800804/assets/A10C6B74979ACCBEB842703ADC1550AD.png" width="25.00" height="57.00" transform="matrix(0.99, 0.00, -0.00, -1.00, 688.9, 95.1)" opacity="0.31"></image><path d="M 689.0 94.0 L 710.0 94.0 L 710.0 41.0 L 689.0 41.0 Z M 689.4 94.4 " fill="#5E317B"></path></g></g></g><g opacity="0.87"><g><clipPath id="clip0x600000caa2c0"><path d="M 673.0 36.0 L 703.0 36.0 L 703.0 99.0 L 673.0 99.0 Z M 673.0 36.0 "></path></clipPath><g clip-path="url(#clip0x600000caa2c0)"><image xlink:href="../../4C6BFD71-4BDB-4C70-8EEC-19172E800804/assets/E6F5530FC57A23DDC9587547463CBF86.png" width="25.00" height="57.00" transform="matrix(0.99, 0.00, -0.00, -1.00, 677.2, 95.1)" opacity="0.31"></image><path d="M 678.0 94.0 L 698.0 94.0 L 698.0 41.0 L 678.0 41.0 Z M 677.6 94.4 " fill="#5E317B"></path></g></g></g><g opacity="0.87"><g><clipPath id="clip0x600000caa620"><path d="M 710.0 36.0 L 741.0 36.0 L 741.0 99.0 L 710.0 99.0 Z M 710.0 36.0 "></path></clipPath><g clip-path="url(#clip0x600000caa620)"><image xlink:href="../../4C6BFD71-4BDB-4C70-8EEC-19172E800804/assets/CD6D9A3CC8EEB76F1830D3864E57CC5B.png" width="25.00" height="57.00" transform="matrix(0.99, 0.00, -0.00, -1.00, 715.0, 95.1)" opacity="0.31"></image><path d="M 715.0 94.0 L 736.0 94.0 L 736.0 41.0 L 715.0 41.0 Z M 715.4 94.4 " fill="#5E317B"></path></g></g></g><g opacity="0.87"><g><clipPath id="clip0x600000caa980"><path d="M 699.0 36.0 L 729.0 36.0 L 729.0 99.0 L 699.0 99.0 Z M 699.0 36.0 "></path></clipPath><g clip-path="url(#clip0x600000caa980)"><image xlink:href="../../4C6BFD71-4BDB-4C70-8EEC-19172E800804/assets/496807F346A9EAA5E3C1C4E4FC4F5D88.png" width="25.00" height="57.00" transform="matrix(0.99, 0.00, -0.00, -1.00, 703.2, 95.1)" opacity="0.31"></image><path d="M 704.0 94.0 L 724.0 94.0 L 724.0 41.0 L 704.0 41.0 Z M 703.6 94.4 " fill="#5E317B"></path></g></g></g><g opacity="0.87"><g><clipPath id="clip0x600000caace0"><path d="M 736.0 36.0 L 767.0 36.0 L 767.0 99.0 L 736.0 99.0 Z M 736.0 36.0 "></path></clipPath><g clip-path="url(#clip0x600000caace0)"><image xlink:href="../../4C6BFD71-4BDB-4C70-8EEC-19172E800804/assets/5A13C22CE4E23F8F697A24C77E9F92B6.png" width="25.00" height="57.00" transform="matrix(0.99, 0.00, -0.00, -1.00, 741.0, 95.1)" opacity="0.31"></image><path d="M 741.0 94.0 L 762.0 94.0 L 762.0 41.0 L 741.0 41.0 Z M 741.4 94.4 " fill="#5E317B"></path></g></g></g><g opacity="0.87"><g><clipPath id="clip0x600000cab040"><path d="M 725.0 36.0 L 755.0 36.0 L 755.0 99.0 L 725.0 99.0 Z M 725.0 36.0 "></path></clipPath><g clip-path="url(#clip0x600000cab040)"><image xlink:href="../../4C6BFD71-4BDB-4C70-8EEC-19172E800804/assets/119380D96A90BAE1BF462C5C484AA0A7.png" width="25.00" height="57.00" transform="matrix(0.99, 0.00, -0.00, -1.00, 729.2, 95.1)" opacity="0.31"></image><path d="M 730.0 94.0 L 750.0 94.0 L 750.0 41.0 L 730.0 41.0 Z M 729.7 94.4 " fill="#5E317B"></path></g></g></g><g opacity="0.87"><g><clipPath id="clip0x608000aa1e00"><path d="M 782.0 36.0 L 813.0 36.0 L 813.0 99.0 L 782.0 99.0 Z M 782.0 36.0 "></path></clipPath><g clip-path="url(#clip0x608000aa1e00)"><image xlink:href="../../4C6BFD71-4BDB-4C70-8EEC-19172E800804/assets/7151634866799B578EE7BE26C52948D4.png" width="25.00" height="57.00" transform="matrix(0.99, 0.00, -0.00, -1.00, 786.5, 95.1)" opacity="0.31"></image><path d="M 787.0 94.0 L 808.0 94.0 L 808.0 41.0 L 787.0 41.0 Z M 786.9 94.4 " fill="#5E317B"></path></g></g></g><g opacity="0.87"><g><clipPath id="clip0x608000aa2340"><path d="M 770.0 36.0 L 801.0 36.0 L 801.0 99.0 L 770.0 99.0 Z M 770.0 36.0 "></path></clipPath><g clip-path="url(#clip0x608000aa2340)"><image xlink:href="../../4C6BFD71-4BDB-4C70-8EEC-19172E800804/assets/FD880DB0BB0364998D54182DC1E347F3.png" width="25.00" height="57.00" transform="matrix(0.99, 0.00, -0.00, -1.00, 774.7, 95.1)" opacity="0.31"></image><path d="M 775.0 94.0 L 796.0 94.0 L 796.0 41.0 L 775.0 41.0 Z M 775.2 94.4 " fill="#5E317B"></path></g></g></g><g opacity="0.87"><g><clipPath id="clip0x600000cab460"><path d="M 800.0 36.0 L 831.0 36.0 L 831.0 99.0 L 800.0 99.0 Z M 800.0 36.0 "></path></clipPath><g clip-path="url(#clip0x600000cab460)"><image xlink:href="../../4C6BFD71-4BDB-4C70-8EEC-19172E800804/assets/1A7CCE4A940DA146F907DE67BF06601C.png" width="25.00" height="57.00" transform="matrix(0.99, 0.00, -0.00, -1.00, 804.8, 95.1)" opacity="0.31"></image><path d="M 805.0 94.0 L 826.0 94.0 L 826.0 41.0 L 805.0 41.0 Z M 805.3 94.4 " fill="#5E317B"></path></g></g></g><g opacity="0.87"><g><clipPath id="clip0x600000cab7c0"><path d="M 788.0 36.0 L 819.0 36.0 L 819.0 99.0 L 788.0 99.0 Z M 788.0 36.0 "></path></clipPath><g clip-path="url(#clip0x600000cab7c0)"><image xlink:href="../../4C6BFD71-4BDB-4C70-8EEC-19172E800804/assets/5472F7198C5AF7C17D4B4B749EF89738.png" width="25.00" height="57.00" transform="matrix(0.99, 0.00, -0.00, -1.00, 793.0, 95.1)" opacity="0.31"></image><path d="M 793.0 94.0 L 814.0 94.0 L 814.0 41.0 L 793.0 41.0 Z M 793.5 94.4 " fill="#5E317B"></path></g></g></g><g opacity="0.87"><g><clipPath id="clip0x608000aa2760"><path d="M 827.0 36.0 L 858.0 36.0 L 858.0 99.0 L 827.0 99.0 Z M 827.0 36.0 "></path></clipPath><g clip-path="url(#clip0x608000aa2760)"><image xlink:href="../../4C6BFD71-4BDB-4C70-8EEC-19172E800804/assets/8AA09A6DE505E495F4311F43B363C0E6.png" width="25.00" height="57.00" transform="matrix(0.99, 0.00, -0.00, -1.00, 831.9, 95.1)" opacity="0.31"></image><path d="M 832.0 94.0 L 853.0 94.0 L 853.0 41.0 L 832.0 41.0 Z M 832.4 94.4 " fill="#5E317B"></path></g></g></g><g opacity="0.87"><g><clipPath id="clip0x608000aa2ac0"><path d="M 816.0 36.0 L 846.0 36.0 L 846.0 99.0 L 816.0 99.0 Z M 816.0 36.0 "></path></clipPath><g clip-path="url(#clip0x608000aa2ac0)"><image xlink:href="../../4C6BFD71-4BDB-4C70-8EEC-19172E800804/assets/7493711388BB62BC6D4E3DDC214B7268.png" width="25.00" height="57.00" transform="matrix(0.99, 0.00, -0.00, -1.00, 820.1, 95.1)" opacity="0.31"></image><path d="M 821.0 94.0 L 841.0 94.0 L 841.0 41.0 L 821.0 41.0 Z M 820.6 94.4 " fill="#5E317B"></path></g></g></g><g opacity="0.87"><g><clipPath id="clip0x608000aa2e20"><path d="M 840.0 36.0 L 871.0 36.0 L 871.0 99.0 L 840.0 99.0 Z M 840.0 36.0 "></path></clipPath><g clip-path="url(#clip0x608000aa2e20)"><image xlink:href="../../4C6BFD71-4BDB-4C70-8EEC-19172E800804/assets/A25BD465920F353D4E224AF6ABEBBC7A.png" width="25.00" height="57.00" transform="matrix(0.99, 0.00, -0.00, -1.00, 844.5, 95.1)" opacity="0.31"></image><path d="M 845.0 94.0 L 866.0 94.0 L 866.0 41.0 L 845.0 41.0 Z M 845.0 94.4 " fill="#5E317B"></path></g></g></g><g opacity="0.87"><g><clipPath id="clip0x608000aa3180"><path d="M 828.0 36.0 L 859.0 36.0 L 859.0 99.0 L 828.0 99.0 Z M 828.0 36.0 "></path></clipPath><g clip-path="url(#clip0x608000aa3180)"><image xlink:href="../../4C6BFD71-4BDB-4C70-8EEC-19172E800804/assets/34A2D52EAC617F5491F93B036A67F6E5.png" width="25.00" height="57.00" transform="matrix(0.99, 0.00, -0.00, -1.00, 832.8, 95.1)" opacity="0.31"></image><path d="M 833.0 94.0 L 854.0 94.0 L 854.0 41.0 L 833.0 41.0 Z M 833.2 94.4 " fill="#5E317B"></path></g></g></g><g opacity="0.87"><g><clipPath id="clip0x608000aa34e0"><path d="M 865.0 36.0 L 896.0 36.0 L 896.0 99.0 L 865.0 99.0 Z M 865.0 36.0 "></path></clipPath><g clip-path="url(#clip0x608000aa34e0)"><image xlink:href="../../4C6BFD71-4BDB-4C70-8EEC-19172E800804/assets/004B6E8A3AEA9C113E0805EF870BE7C3.png" width="25.00" height="57.00" transform="matrix(0.99, 0.00, -0.00, -1.00, 869.6, 95.1)" opacity="0.31"></image><path d="M 870.0 94.0 L 891.0 94.0 L 891.0 41.0 L 870.0 41.0 Z M 870.1 94.4 " fill="#5E317B"></path></g></g></g><g opacity="0.87"><g><clipPath id="clip0x608000aa3840"><path d="M 853.0 36.0 L 884.0 36.0 L 884.0 99.0 L 853.0 99.0 Z M 853.0 36.0 "></path></clipPath><g clip-path="url(#clip0x608000aa3840)"><image xlink:href="../../4C6BFD71-4BDB-4C70-8EEC-19172E800804/assets/B952BA02C68C7784D84D35F60B8A46F4.png" width="25.00" height="57.00" transform="matrix(0.99, 0.00, -0.00, -1.00, 857.9, 95.1)" opacity="0.31"></image><path d="M 858.0 94.0 L 879.0 94.0 L 879.0 41.0 L 858.0 41.0 Z M 858.3 94.4 " fill="#5E317B"></path></g></g></g><g opacity="0.87"><g><clipPath id="clip0x608000aa3ba0"><path d="M 862.0 83.0 L 914.0 83.0 L 914.0 155.0 L 862.0 155.0 Z M 862.0 83.0 "></path></clipPath><g clip-path="url(#clip0x608000aa3ba0)"><image xlink:href="../../4C6BFD71-4BDB-4C70-8EEC-19172E800804/assets/05394F4D41212E8A917B851AC8740333.png" width="46.00" height="67.00" transform="matrix(0.99, 0.00, -0.00, -1.00, 866.4, 151.3)" opacity="0.31"></image><path d="M 867.0 151.0 L 909.0 151.0 L 909.0 88.0 L 867.0 88.0 Z M 866.9 150.6 " fill="#5E317B"></path></g></g></g></g></svg>