<?xml version="1.0" encoding="UTF-8" standalone="no"?><svg xmlns="http://www.w3.org/2000/svg" xmlns:xlink="http://www.w3.org/1999/xlink" clip-rule="evenodd" stroke-miterlimit="10" viewBox="0 0 1024 768"><desc>SVG generated by Keynote</desc><defs></defs><g transform="matrix(1.00, 0.00, -0.00, -1.00, 0.0, 768.0)"><path d="M 0.0 768.0 L 1024.0 768.0 L 1024.0 0.0 L 0.0 0.0 Z M 0.0 768.0 " fill="#FEFFFF"></path><g><clipPath id="clip0x600001aafa20"><path d="M 529.0 718.0 L 949.0 718.0 L 949.0 70.0 L 529.0 70.0 Z M 529.0 718.0 "></path></clipPath><g clip-path="url(#clip0x600001aafa20)"><image xlink:href="../../8087EB53-4094-4530-B2B8-1A7F50D874CB/assets/5F1F644556214CDB6DBFCA56C173C960.png" width="1630.00" height="1460.00" transform="matrix(0.44, 0.00, -0.00, -0.44, 530.3, 718.0)"></image></g></g><text xml:space="preserve" font-family="Helvetica-Light,Helvetica" font-size="60.0" fill="#000000" transform="matrix(1.00, 0.00, -0.00, -1.00, 23.7, 421.8)">j</text><text xml:space="preserve" font-family="Helvetica-Light,Helvetica" font-size="60.0" fill="#000000" transform="matrix(1.00, 0.00, -0.00, -1.00, 37.0, 421.8)">Q</text><text xml:space="preserve" font-family="Helvetica-Light,Helvetica" font-size="60.0" fill="#000000" transform="matrix(1.00, 0.00, -0.00, -1.00, 83.7, 421.8)">u</text><text xml:space="preserve" font-family="Helvetica-Light,Helvetica" font-size="60.0" fill="#000000" transform="matrix(1.00, 0.00, -0.00, -1.00, 117.1, 421.8)">e</text><text xml:space="preserve" font-family="Helvetica-Light,Helvetica" font-size="60.0" fill="#000000" transform="matrix(1.00, 0.00, -0.00, -1.00, 150.4, 421.8)">r</text><text xml:space="preserve" font-family="Helvetica-Light,Helvetica" font-size="60.0" fill="#000000" transform="matrix(1.00, 0.00, -0.00, -1.00, 171.5, 421.8)">y</text><text xml:space="preserve" font-family="Helvetica-Light,Helvetica" font-size="60.0" fill="#000000" transform="matrix(1.00, 0.00, -0.00, -1.00, 201.5, 421.8)">-</text><text xml:space="preserve" font-family="Helvetica-Light,Helvetica" font-size="60.0" fill="#000000" transform="matrix(1.00, 0.00, -0.00, -1.00, 221.5, 421.8)">m</text><text xml:space="preserve" font-family="Helvetica-Light,Helvetica" font-size="60.0" fill="#000000" transform="matrix(1.00, 0.00, -0.00, -1.00, 271.5, 421.8)">e</text><text xml:space="preserve" font-family="Helvetica-Light,Helvetica" font-size="60.0" fill="#000000" transform="matrix(1.00, 0.00, -0.00, -1.00, 304.8, 421.8)">n</text><text xml:space="preserve" font-family="Helvetica-Light,Helvetica" font-size="60.0" fill="#000000" transform="matrix(1.00, 0.00, -0.00, -1.00, 338.2, 421.8)">u</text><text xml:space="preserve" font-family="Helvetica-Light,Helvetica" font-size="60.0" fill="#000000" transform="matrix(1.00, 0.00, -0.00, -1.00, 371.5, 421.8)">-</text><text xml:space="preserve" font-family="Helvetica-Light,Helvetica" font-size="60.0" fill="#000000" transform="matrix(1.00, 0.00, -0.00, -1.00, 391.5, 421.8)">a</text><text xml:space="preserve" font-family="Helvetica-Light,Helvetica" font-size="60.0" fill="#000000" transform="matrix(1.00, 0.00, -0.00, -1.00, 424.9, 421.8)">i</text><text xml:space="preserve" font-family="Helvetica-Light,Helvetica" font-size="60.0" fill="#000000" transform="matrix(1.00, 0.00, -0.00, -1.00, 438.2, 421.8)">m</text><text xml:space="preserve" font-family="Helvetica-Light,Helvetica" font-size="32.0" fill="#000000" transform="matrix(1.00, 0.00, -0.00, -1.00, 100.1, 358.4)">A</text><text xml:space="preserve" font-family="Helvetica-Light,Helvetica" font-size="32.0" fill="#000000" transform="matrix(1.00, 0.00, -0.00, -1.00, 121.4, 358.4)">n</text><text xml:space="preserve" font-family="Helvetica-Light,Helvetica" font-size="32.0" fill="#000000" transform="matrix(1.00, 0.00, -0.00, -1.00, 139.2, 358.4)"> </text><text xml:space="preserve" font-family="Helvetica-Light,Helvetica" font-size="32.0" fill="#000000" transform="matrix(1.00, 0.00, -0.00, -1.00, 148.1, 358.4)">o</text><text xml:space="preserve" font-family="Helvetica-Light,Helvetica" font-size="32.0" fill="#000000" transform="matrix(1.00, 0.00, -0.00, -1.00, 165.9, 358.4)">p</text><text xml:space="preserve" font-family="Helvetica-Light,Helvetica" font-size="32.0" fill="#000000" transform="matrix(1.00, 0.00, -0.00, -1.00, 185.4, 358.4)">e</text><text xml:space="preserve" font-family="Helvetica-Light,Helvetica" font-size="32.0" fill="#000000" transform="matrix(1.00, 0.00, -0.00, -1.00, 203.2, 358.4)">n</text><text xml:space="preserve" font-family="Helvetica-Light,Helvetica" font-size="32.0" fill="#000000" transform="matrix(1.00, 0.00, -0.00, -1.00, 221.0, 358.4)"> </text><text xml:space="preserve" font-family="Helvetica-Light,Helvetica" font-size="32.0" fill="#000000" transform="matrix(1.00, 0.00, -0.00, -1.00, 229.9, 358.4)">s</text><text xml:space="preserve" font-family="Helvetica-Light,Helvetica" font-size="32.0" fill="#000000" transform="matrix(1.00, 0.00, -0.00, -1.00, 245.9, 358.4)">o</text><text xml:space="preserve" font-family="Helvetica-Light,Helvetica" font-size="32.0" fill="#000000" transform="matrix(1.00, 0.00, -0.00, -1.00, 263.7, 358.4)">u</text><text xml:space="preserve" font-family="Helvetica-Light,Helvetica" font-size="32.0" fill="#000000" transform="matrix(1.00, 0.00, -0.00, -1.00, 281.5, 358.4)">r</text><text xml:space="preserve" font-family="Helvetica-Light,Helvetica" font-size="32.0" fill="#000000" transform="matrix(1.00, 0.00, -0.00, -1.00, 291.6, 358.4)">c</text><text xml:space="preserve" font-family="Helvetica-Light,Helvetica" font-size="32.0" fill="#000000" transform="matrix(1.00, 0.00, -0.00, -1.00, 309.4, 358.4)">e</text><text xml:space="preserve" font-family="Helvetica-Light,Helvetica" font-size="32.0" fill="#000000" transform="matrix(1.00, 0.00, -0.00, -1.00, 327.2, 358.4)"> </text><text xml:space="preserve" font-family="Helvetica-Light,Helvetica" font-size="32.0" fill="#000000" transform="matrix(1.00, 0.00, -0.00, -1.00, 336.1, 358.4)">l</text><text xml:space="preserve" font-family="Helvetica-Light,Helvetica" font-size="32.0" fill="#000000" transform="matrix(1.00, 0.00, -0.00, -1.00, 343.2, 358.4)">i</text><text xml:space="preserve" font-family="Helvetica-Light,Helvetica" font-size="32.0" fill="#000000" transform="matrix(1.00, 0.00, -0.00, -1.00, 350.3, 358.4)">b</text><text xml:space="preserve" font-family="Helvetica-Light,Helvetica" font-size="32.0" fill="#000000" transform="matrix(1.00, 0.00, -0.00, -1.00, 369.8, 358.4)">r</text><text xml:space="preserve" font-family="Helvetica-Light,Helvetica" font-size="32.0" fill="#000000" transform="matrix(1.00, 0.00, -0.00, -1.00, 380.5, 358.4)">a</text><text xml:space="preserve" font-family="Helvetica-Light,Helvetica" font-size="32.0" fill="#000000" transform="matrix(1.00, 0.00, -0.00, -1.00, 398.3, 358.4)">r</text><text xml:space="preserve" font-family="Helvetica-Light,Helvetica" font-size="32.0" fill="#000000" transform="matrix(1.00, 0.00, -0.00, -1.00, 409.5, 358.4)">y</text><text xml:space="preserve" font-family="Helvetica-Light,Helvetica" font-size="32.0" fill="#000000" transform="matrix(1.00, 0.00, -0.00, -1.00, 425.5, 358.4)"> </text><text xml:space="preserve" font-family="Helvetica-Light,Helvetica" font-size="32.0" fill="#000000" transform="matrix(1.00, 0.00, -0.00, -1.00, 434.4, 358.4)">b</text><text xml:space="preserve" font-family="Helvetica-Light,Helvetica" font-size="32.0" fill="#000000" transform="matrix(1.00, 0.00, -0.00, -1.00, 453.9, 358.4)">y</text><text xml:space="preserve" font-family="Helvetica-Light,Helvetica" font-size="32.0" fill="#000000" transform="matrix(1.00, 0.00, -0.00, -1.00, 469.9, 358.4)"> </text><text xml:space="preserve" font-family="Helvetica-Light,Helvetica" font-size="32.0" fill="#000000" transform="matrix(1.00, 0.00, -0.00, -1.00, 189.0, 320.4)">B</text><text xml:space="preserve" font-family="Helvetica-Light,Helvetica" font-size="32.0" fill="#000000" transform="matrix(1.00, 0.00, -0.00, -1.00, 210.3, 320.4)">e</text><text xml:space="preserve" font-family="Helvetica-Light,Helvetica" font-size="32.0" fill="#000000" transform="matrix(1.00, 0.00, -0.00, -1.00, 228.1, 320.4)">n</text><text xml:space="preserve" font-family="Helvetica-Light,Helvetica" font-size="32.0" fill="#000000" transform="matrix(1.00, 0.00, -0.00, -1.00, 245.9, 320.4)"> </text><text xml:space="preserve" font-family="Helvetica-Light,Helvetica" font-size="32.0" fill="#000000" transform="matrix(1.00, 0.00, -0.00, -1.00, 254.8, 320.4)">K</text><text xml:space="preserve" font-family="Helvetica-Light,Helvetica" font-size="32.0" fill="#000000" transform="matrix(1.00, 0.00, -0.00, -1.00, 276.1, 320.4)">a</text><text xml:space="preserve" font-family="Helvetica-Light,Helvetica" font-size="32.0" fill="#000000" transform="matrix(1.00, 0.00, -0.00, -1.00, 293.9, 320.4)">m</text><text xml:space="preserve" font-family="Helvetica-Light,Helvetica" font-size="32.0" fill="#000000" transform="matrix(1.00, 0.00, -0.00, -1.00, 320.6, 320.4)">e</text><text xml:space="preserve" font-family="Helvetica-Light,Helvetica" font-size="32.0" fill="#000000" transform="matrix(1.00, 0.00, -0.00, -1.00, 338.4, 320.4)">n</text><text xml:space="preserve" font-family="Helvetica-Light,Helvetica" font-size="32.0" fill="#000000" transform="matrix(1.00, 0.00, -0.00, -1.00, 356.2, 320.4)">s</text><text xml:space="preserve" font-family="Helvetica-Light,Helvetica" font-size="32.0" fill="#000000" transform="matrix(1.00, 0.00, -0.00, -1.00, 372.2, 320.4)">.</text></g></svg>