<?xml version="1.0" encoding="UTF-8" standalone="no"?><svg xmlns="http://www.w3.org/2000/svg" xmlns:xlink="http://www.w3.org/1999/xlink" clip-rule="evenodd" stroke-miterlimit="10" viewBox="0 0 1024 768"><desc>SVG generated by Keynote</desc><defs></defs><g transform="matrix(1.00, 0.00, -0.00, -1.00, 0.0, 768.0)"><path d="M 0.0 768.0 L 1024.0 768.0 L 1024.0 0.0 L 0.0 0.0 Z M 0.0 768.0 " fill="#FEFFFF"></path><g><clipPath id="clip0x600000eafc00"><path d="M 127.0 718.0 L 849.0 718.0 L 849.0 281.0 L 127.0 281.0 Z M 126.5 718.0 "></path></clipPath><g clip-path="url(#clip0x600000eafc00)"><image xlink:href="../../2F47DA9B-A7F9-40CD-9282-6C64FD5A298A/assets/59B84B5C4224D36CEB6090F0678965D2.png" width="1608.00" height="1212.00" transform="matrix(0.36, 0.00, -0.00, -0.36, 197.7, 718.0)"></image></g></g><text xml:space="preserve" font-family="Helvetica-Light,Helvetica" font-size="75.2" fill="#000000" transform="matrix(1.00, 0.00, -0.00, -1.00, 107.3, 148.3)">3</text><text xml:space="preserve" font-family="Helvetica-Light,Helvetica" font-size="75.2" fill="#000000" transform="matrix(1.00, 0.00, -0.00, -1.00, 149.1, 148.3)"> </text><text xml:space="preserve" font-family="Helvetica-Light,Helvetica" font-size="75.2" fill="#000000" transform="matrix(1.00, 0.00, -0.00, -1.00, 170.0, 148.3)">p</text><text xml:space="preserve" font-family="Helvetica-Light,Helvetica" font-size="75.2" fill="#000000" transform="matrix(1.00, 0.00, -0.00, -1.00, 216.0, 148.3)">o</text><text xml:space="preserve" font-family="Helvetica-Light,Helvetica" font-size="75.2" fill="#000000" transform="matrix(1.00, 0.00, -0.00, -1.00, 257.8, 148.3)">i</text><text xml:space="preserve" font-family="Helvetica-Light,Helvetica" font-size="75.2" fill="#000000" transform="matrix(1.00, 0.00, -0.00, -1.00, 274.5, 148.3)">n</text><text xml:space="preserve" font-family="Helvetica-Light,Helvetica" font-size="75.2" fill="#000000" transform="matrix(1.00, 0.00, -0.00, -1.00, 316.3, 148.3)">t</text><text xml:space="preserve" font-family="Helvetica-Light,Helvetica" font-size="75.2" fill="#000000" transform="matrix(1.00, 0.00, -0.00, -1.00, 337.2, 148.3)"> </text><text xml:space="preserve" font-family="Helvetica-Light,Helvetica" font-size="75.2" fill="#000000" transform="matrix(1.00, 0.00, -0.00, -1.00, 358.1, 148.3)">V</text><text xml:space="preserve" font-family="Helvetica-Light,Helvetica" font-size="75.2" fill="#000000" transform="matrix(1.00, 0.00, -0.00, -1.00, 399.9, 148.3)">o</text><text xml:space="preserve" font-family="Helvetica-Light,Helvetica" font-size="75.2" fill="#000000" transform="matrix(1.00, 0.00, -0.00, -1.00, 441.7, 148.3)">r</text><text xml:space="preserve" font-family="Helvetica-Light,Helvetica" font-size="75.2" fill="#000000" transform="matrix(1.00, 0.00, -0.00, -1.00, 465.4, 148.3)">o</text><text xml:space="preserve" font-family="Helvetica-Light,Helvetica" font-size="75.2" fill="#000000" transform="matrix(1.00, 0.00, -0.00, -1.00, 507.2, 148.3)">n</text><text xml:space="preserve" font-family="Helvetica-Light,Helvetica" font-size="75.2" fill="#000000" transform="matrix(1.00, 0.00, -0.00, -1.00, 549.0, 148.3)">o</text><text xml:space="preserve" font-family="Helvetica-Light,Helvetica" font-size="75.2" fill="#000000" transform="matrix(1.00, 0.00, -0.00, -1.00, 590.8, 148.3)">i</text><text xml:space="preserve" font-family="Helvetica-Light,Helvetica" font-size="75.2" fill="#000000" transform="matrix(1.00, 0.00, -0.00, -1.00, 607.5, 148.3)"> </text><text xml:space="preserve" font-family="Helvetica-Light,Helvetica" font-size="75.2" fill="#000000" transform="matrix(1.00, 0.00, -0.00, -1.00, 628.4, 148.3)">D</text><text xml:space="preserve" font-family="Helvetica-Light,Helvetica" font-size="75.2" fill="#000000" transform="matrix(1.00, 0.00, -0.00, -1.00, 682.7, 148.3)">i</text><text xml:space="preserve" font-family="Helvetica-Light,Helvetica" font-size="75.2" fill="#000000" transform="matrix(1.00, 0.00, -0.00, -1.00, 699.4, 148.3)">a</text><text xml:space="preserve" font-family="Helvetica-Light,Helvetica" font-size="75.2" fill="#000000" transform="matrix(1.00, 0.00, -0.00, -1.00, 741.2, 148.3)">g</text><text xml:space="preserve" font-family="Helvetica-Light,Helvetica" font-size="75.2" fill="#000000" transform="matrix(1.00, 0.00, -0.00, -1.00, 787.2, 148.3)">r</text><text xml:space="preserve" font-family="Helvetica-Light,Helvetica" font-size="75.2" fill="#000000" transform="matrix(1.00, 0.00, -0.00, -1.00, 812.2, 148.3)">a</text><text xml:space="preserve" font-family="Helvetica-Light,Helvetica" font-size="75.2" fill="#000000" transform="matrix(1.00, 0.00, -0.00, -1.00, 854.0, 148.3)">m</text><text xml:space="preserve" font-family="Helvetica-Light,Helvetica" font-size="32.0" fill="#000000" transform="matrix(1.00, 0.00, -0.00, -1.00, 114.9, 88.4)">A</text><text xml:space="preserve" font-family="Helvetica-Light,Helvetica" font-size="32.0" fill="#000000" transform="matrix(1.00, 0.00, -0.00, -1.00, 136.2, 88.4)"> </text><text xml:space="preserve" font-family="Helvetica-Light,Helvetica" font-size="32.0" fill="#000000" transform="matrix(1.00, 0.00, -0.00, -1.00, 145.1, 88.4)">s</text><text xml:space="preserve" font-family="Helvetica-Light,Helvetica" font-size="32.0" fill="#000000" transform="matrix(1.00, 0.00, -0.00, -1.00, 161.1, 88.4)">i</text><text xml:space="preserve" font-family="Helvetica-Light,Helvetica" font-size="32.0" fill="#000000" transform="matrix(1.00, 0.00, -0.00, -1.00, 168.2, 88.4)">m</text><text xml:space="preserve" font-family="Helvetica-Light,Helvetica" font-size="32.0" fill="#000000" transform="matrix(1.00, 0.00, -0.00, -1.00, 194.9, 88.4)">p</text><text xml:space="preserve" font-family="Helvetica-Light,Helvetica" font-size="32.0" fill="#000000" transform="matrix(1.00, 0.00, -0.00, -1.00, 214.4, 88.4)">l</text><text xml:space="preserve" font-family="Helvetica-Light,Helvetica" font-size="32.0" fill="#000000" transform="matrix(1.00, 0.00, -0.00, -1.00, 221.5, 88.4)">e</text><text xml:space="preserve" font-family="Helvetica-Light,Helvetica" font-size="32.0" fill="#000000" transform="matrix(1.00, 0.00, -0.00, -1.00, 239.3, 88.4)"> </text><text xml:space="preserve" font-family="Helvetica-Light,Helvetica" font-size="32.0" fill="#000000" transform="matrix(1.00, 0.00, -0.00, -1.00, 248.2, 88.4)">V</text><text xml:space="preserve" font-family="Helvetica-Light,Helvetica" font-size="32.0" fill="#000000" transform="matrix(1.00, 0.00, -0.00, -1.00, 266.0, 88.4)">o</text><text xml:space="preserve" font-family="Helvetica-Light,Helvetica" font-size="32.0" fill="#000000" transform="matrix(1.00, 0.00, -0.00, -1.00, 283.8, 88.4)">r</text><text xml:space="preserve" font-family="Helvetica-Light,Helvetica" font-size="32.0" fill="#000000" transform="matrix(1.00, 0.00, -0.00, -1.00, 293.9, 88.4)">o</text><text xml:space="preserve" font-family="Helvetica-Light,Helvetica" font-size="32.0" fill="#000000" transform="matrix(1.00, 0.00, -0.00, -1.00, 311.7, 88.4)">n</text><text xml:space="preserve" font-family="Helvetica-Light,Helvetica" font-size="32.0" fill="#000000" transform="matrix(1.00, 0.00, -0.00, -1.00, 329.5, 88.4)">o</text><text xml:space="preserve" font-family="Helvetica-Light,Helvetica" font-size="32.0" fill="#000000" transform="matrix(1.00, 0.00, -0.00, -1.00, 347.3, 88.4)">i</text><text xml:space="preserve" font-family="Helvetica-Light,Helvetica" font-size="32.0" fill="#000000" transform="matrix(1.00, 0.00, -0.00, -1.00, 354.4, 88.4)"> </text><text xml:space="preserve" font-family="Helvetica-Light,Helvetica" font-size="32.0" fill="#000000" transform="matrix(1.00, 0.00, -0.00, -1.00, 363.3, 88.4)">d</text><text xml:space="preserve" font-family="Helvetica-Light,Helvetica" font-size="32.0" fill="#000000" transform="matrix(1.00, 0.00, -0.00, -1.00, 382.8, 88.4)">i</text><text xml:space="preserve" font-family="Helvetica-Light,Helvetica" font-size="32.0" fill="#000000" transform="matrix(1.00, 0.00, -0.00, -1.00, 389.9, 88.4)">a</text><text xml:space="preserve" font-family="Helvetica-Light,Helvetica" font-size="32.0" fill="#000000" transform="matrix(1.00, 0.00, -0.00, -1.00, 407.7, 88.4)">g</text><text xml:space="preserve" font-family="Helvetica-Light,Helvetica" font-size="32.0" fill="#000000" transform="matrix(1.00, 0.00, -0.00, -1.00, 427.3, 88.4)">r</text><text xml:space="preserve" font-family="Helvetica-Light,Helvetica" font-size="32.0" fill="#000000" transform="matrix(1.00, 0.00, -0.00, -1.00, 437.9, 88.4)">a</text><text xml:space="preserve" font-family="Helvetica-Light,Helvetica" font-size="32.0" fill="#000000" transform="matrix(1.00, 0.00, -0.00, -1.00, 455.7, 88.4)">m</text><text xml:space="preserve" font-family="Helvetica-Light,Helvetica" font-size="32.0" fill="#000000" transform="matrix(1.00, 0.00, -0.00, -1.00, 482.4, 88.4)"> </text><text xml:space="preserve" font-family="Helvetica-Light,Helvetica" font-size="32.0" fill="#000000" transform="matrix(1.00, 0.00, -0.00, -1.00, 491.3, 88.4)">w</text><text xml:space="preserve" font-family="Helvetica-Light,Helvetica" font-size="32.0" fill="#000000" transform="matrix(1.00, 0.00, -0.00, -1.00, 514.4, 88.4)">i</text><text xml:space="preserve" font-family="Helvetica-Light,Helvetica" font-size="32.0" fill="#000000" transform="matrix(1.00, 0.00, -0.00, -1.00, 521.5, 88.4)">t</text><text xml:space="preserve" font-family="Helvetica-Light,Helvetica" font-size="32.0" fill="#000000" transform="matrix(1.00, 0.00, -0.00, -1.00, 530.4, 88.4)">h</text><text xml:space="preserve" font-family="Helvetica-Light,Helvetica" font-size="32.0" fill="#000000" transform="matrix(1.00, 0.00, -0.00, -1.00, 548.2, 88.4)"> </text><text xml:space="preserve" font-family="Helvetica-Light,Helvetica" font-size="32.0" fill="#000000" transform="matrix(1.00, 0.00, -0.00, -1.00, 557.1, 88.4)">3</text><text xml:space="preserve" font-family="Helvetica-Light,Helvetica" font-size="32.0" fill="#000000" transform="matrix(1.00, 0.00, -0.00, -1.00, 574.8, 88.4)"> </text><text xml:space="preserve" font-family="Helvetica-Light,Helvetica" font-size="32.0" fill="#000000" transform="matrix(1.00, 0.00, -0.00, -1.00, 583.7, 88.4)">o</text><text xml:space="preserve" font-family="Helvetica-Light,Helvetica" font-size="32.0" fill="#000000" transform="matrix(1.00, 0.00, -0.00, -1.00, 601.5, 88.4)">r</text><text xml:space="preserve" font-family="Helvetica-Light,Helvetica" font-size="32.0" fill="#000000" transform="matrix(1.00, 0.00, -0.00, -1.00, 612.2, 88.4)">i</text><text xml:space="preserve" font-family="Helvetica-Light,Helvetica" font-size="32.0" fill="#000000" transform="matrix(1.00, 0.00, -0.00, -1.00, 619.3, 88.4)">g</text><text xml:space="preserve" font-family="Helvetica-Light,Helvetica" font-size="32.0" fill="#000000" transform="matrix(1.00, 0.00, -0.00, -1.00, 638.8, 88.4)">i</text><text xml:space="preserve" font-family="Helvetica-Light,Helvetica" font-size="32.0" fill="#000000" transform="matrix(1.00, 0.00, -0.00, -1.00, 646.0, 88.4)">n</text><text xml:space="preserve" font-family="Helvetica-Light,Helvetica" font-size="32.0" fill="#000000" transform="matrix(1.00, 0.00, -0.00, -1.00, 663.7, 88.4)">a</text><text xml:space="preserve" font-family="Helvetica-Light,Helvetica" font-size="32.0" fill="#000000" transform="matrix(1.00, 0.00, -0.00, -1.00, 681.5, 88.4)">l</text><text xml:space="preserve" font-family="Helvetica-Light,Helvetica" font-size="32.0" fill="#000000" transform="matrix(1.00, 0.00, -0.00, -1.00, 688.6, 88.4)"> </text><text xml:space="preserve" font-family="Helvetica-Light,Helvetica" font-size="32.0" fill="#000000" transform="matrix(1.00, 0.00, -0.00, -1.00, 697.5, 88.4)">p</text><text xml:space="preserve" font-family="Helvetica-Light,Helvetica" font-size="32.0" fill="#000000" transform="matrix(1.00, 0.00, -0.00, -1.00, 717.1, 88.4)">o</text><text xml:space="preserve" font-family="Helvetica-Light,Helvetica" font-size="32.0" fill="#000000" transform="matrix(1.00, 0.00, -0.00, -1.00, 734.9, 88.4)">i</text><text xml:space="preserve" font-family="Helvetica-Light,Helvetica" font-size="32.0" fill="#000000" transform="matrix(1.00, 0.00, -0.00, -1.00, 742.0, 88.4)">n</text><text xml:space="preserve" font-family="Helvetica-Light,Helvetica" font-size="32.0" fill="#000000" transform="matrix(1.00, 0.00, -0.00, -1.00, 759.8, 88.4)">t</text><text xml:space="preserve" font-family="Helvetica-Light,Helvetica" font-size="32.0" fill="#000000" transform="matrix(1.00, 0.00, -0.00, -1.00, 768.7, 88.4)">s</text><text xml:space="preserve" font-family="Helvetica-Light,Helvetica" font-size="32.0" fill="#000000" transform="matrix(1.00, 0.00, -0.00, -1.00, 784.7, 88.4)">,</text><text xml:space="preserve" font-family="Helvetica-Light,Helvetica" font-size="32.0" fill="#000000" transform="matrix(1.00, 0.00, -0.00, -1.00, 793.6, 88.4)"> </text><text xml:space="preserve" font-family="Helvetica-Light,Helvetica" font-size="32.0" fill="#000000" transform="matrix(1.00, 0.00, -0.00, -1.00, 802.5, 88.4)">d</text><text xml:space="preserve" font-family="Helvetica-Light,Helvetica" font-size="32.0" fill="#000000" transform="matrix(1.00, 0.00, -0.00, -1.00, 822.0, 88.4)">i</text><text xml:space="preserve" font-family="Helvetica-Light,Helvetica" font-size="32.0" fill="#000000" transform="matrix(1.00, 0.00, -0.00, -1.00, 829.1, 88.4)">v</text><text xml:space="preserve" font-family="Helvetica-Light,Helvetica" font-size="32.0" fill="#000000" transform="matrix(1.00, 0.00, -0.00, -1.00, 845.1, 88.4)">i</text><text xml:space="preserve" font-family="Helvetica-Light,Helvetica" font-size="32.0" fill="#000000" transform="matrix(1.00, 0.00, -0.00, -1.00, 852.2, 88.4)">d</text><text xml:space="preserve" font-family="Helvetica-Light,Helvetica" font-size="32.0" fill="#000000" transform="matrix(1.00, 0.00, -0.00, -1.00, 871.8, 88.4)">e</text><text xml:space="preserve" font-family="Helvetica-Light,Helvetica" font-size="32.0" fill="#000000" transform="matrix(1.00, 0.00, -0.00, -1.00, 889.6, 88.4)">d</text><text xml:space="preserve" font-family="Helvetica-Light,Helvetica" font-size="32.0" fill="#000000" transform="matrix(1.00, 0.00, -0.00, -1.00, 909.1, 88.4)"> </text><text xml:space="preserve" font-family="Helvetica-Light,Helvetica" font-size="32.0" fill="#000000" transform="matrix(1.00, 0.00, -0.00, -1.00, 398.2, 50.4)">i</text><text xml:space="preserve" font-family="Helvetica-Light,Helvetica" font-size="32.0" fill="#000000" transform="matrix(1.00, 0.00, -0.00, -1.00, 405.3, 50.4)">n</text><text xml:space="preserve" font-family="Helvetica-Light,Helvetica" font-size="32.0" fill="#000000" transform="matrix(1.00, 0.00, -0.00, -1.00, 423.1, 50.4)">t</text><text xml:space="preserve" font-family="Helvetica-Light,Helvetica" font-size="32.0" fill="#000000" transform="matrix(1.00, 0.00, -0.00, -1.00, 432.0, 50.4)">o</text><text xml:space="preserve" font-family="Helvetica-Light,Helvetica" font-size="32.0" fill="#000000" transform="matrix(1.00, 0.00, -0.00, -1.00, 449.8, 50.4)"> </text><text xml:space="preserve" font-family="Helvetica-Light,Helvetica" font-size="32.0" fill="#000000" transform="matrix(1.00, 0.00, -0.00, -1.00, 458.7, 50.4)">3</text><text xml:space="preserve" font-family="Helvetica-Light,Helvetica" font-size="32.0" fill="#000000" transform="matrix(1.00, 0.00, -0.00, -1.00, 476.4, 50.4)"> </text><text xml:space="preserve" font-family="Helvetica-Light,Helvetica" font-size="32.0" fill="#000000" transform="matrix(1.00, 0.00, -0.00, -1.00, 485.3, 50.4)">p</text><text xml:space="preserve" font-family="Helvetica-Light,Helvetica" font-size="32.0" fill="#000000" transform="matrix(1.00, 0.00, -0.00, -1.00, 504.9, 50.4)">o</text><text xml:space="preserve" font-family="Helvetica-Light,Helvetica" font-size="32.0" fill="#000000" transform="matrix(1.00, 0.00, -0.00, -1.00, 522.7, 50.4)">l</text><text xml:space="preserve" font-family="Helvetica-Light,Helvetica" font-size="32.0" fill="#000000" transform="matrix(1.00, 0.00, -0.00, -1.00, 529.8, 50.4)">y</text><text xml:space="preserve" font-family="Helvetica-Light,Helvetica" font-size="32.0" fill="#000000" transform="matrix(1.00, 0.00, -0.00, -1.00, 545.8, 50.4)">g</text><text xml:space="preserve" font-family="Helvetica-Light,Helvetica" font-size="32.0" fill="#000000" transform="matrix(1.00, 0.00, -0.00, -1.00, 565.3, 50.4)">o</text><text xml:space="preserve" font-family="Helvetica-Light,Helvetica" font-size="32.0" fill="#000000" transform="matrix(1.00, 0.00, -0.00, -1.00, 583.1, 50.4)">n</text><text xml:space="preserve" font-family="Helvetica-Light,Helvetica" font-size="32.0" fill="#000000" transform="matrix(1.00, 0.00, -0.00, -1.00, 600.9, 50.4)">s</text><text xml:space="preserve" font-family="Helvetica-Light,Helvetica" font-size="32.0" fill="#000000" transform="matrix(1.00, 0.00, -0.00, -1.00, 616.9, 50.4)">.</text></g></svg>