<?xml version="1.0" encoding="UTF-8" standalone="no"?><svg xmlns="http://www.w3.org/2000/svg" xmlns:xlink="http://www.w3.org/1999/xlink" clip-rule="evenodd" stroke-miterlimit="10" viewBox="0 0 455 22"><desc>SVG generated by Keynote</desc><defs></defs><g transform="matrix(1.00, 0.00, -0.00, -1.00, 0.0, 22.0)"><text xml:space="preserve" font-family="Helvetica-Light,Helvetica" font-size="17.0" fill="#000000" transform="matrix(1.00, 0.00, -0.00, -1.00, 0.7, 4.9)">S</text><text xml:space="preserve" font-family="Helvetica-Light,Helvetica" font-size="17.0" fill="#000000" transform="matrix(1.00, 0.00, -0.00, -1.00, 11.1, 4.9)">o</text><text xml:space="preserve" font-family="Helvetica-Light,Helvetica" font-size="17.0" fill="#000000" transform="matrix(1.00, 0.00, -0.00, -1.00, 20.6, 4.9)">u</text><text xml:space="preserve" font-family="Helvetica-Light,Helvetica" font-size="17.0" fill="#000000" transform="matrix(1.00, 0.00, -0.00, -1.00, 30.0, 4.9)">r</text><text xml:space="preserve" font-family="Helvetica-Light,Helvetica" font-size="17.0" fill="#000000" transform="matrix(1.00, 0.00, -0.00, -1.00, 35.4, 4.9)">c</text><text xml:space="preserve" font-family="Helvetica-Light,Helvetica" font-size="17.0" fill="#000000" transform="matrix(1.00, 0.00, -0.00, -1.00, 44.8, 4.9)">e</text><text xml:space="preserve" font-family="Helvetica-Light,Helvetica" font-size="17.0" fill="#000000" transform="matrix(1.00, 0.00, -0.00, -1.00, 54.3, 4.9)">:</text><text xml:space="preserve" font-family="Helvetica-Light,Helvetica" font-size="17.0" fill="#000000" transform="matrix(1.00, 0.00, -0.00, -1.00, 59.0, 4.9)"> </text><text xml:space="preserve" font-family="Helvetica-Light,Helvetica" font-size="17.0" fill="#000000" transform="matrix(1.00, 0.00, -0.00, -1.00, 63.7, 4.9)">h</text><text xml:space="preserve" font-family="Helvetica-Light,Helvetica" font-size="17.0" fill="#000000" transform="matrix(1.00, 0.00, -0.00, -1.00, 73.2, 4.9)">t</text><text xml:space="preserve" font-family="Helvetica-Light,Helvetica" font-size="17.0" fill="#000000" transform="matrix(1.00, 0.00, -0.00, -1.00, 77.9, 4.9)">t</text><text xml:space="preserve" font-family="Helvetica-Light,Helvetica" font-size="17.0" fill="#000000" transform="matrix(1.00, 0.00, -0.00, -1.00, 82.6, 4.9)">p</text><text xml:space="preserve" font-family="Helvetica-Light,Helvetica" font-size="17.0" fill="#000000" transform="matrix(1.00, 0.00, -0.00, -1.00, 93.0, 4.9)">:</text><text xml:space="preserve" font-family="Helvetica-Light,Helvetica" font-size="17.0" fill="#000000" transform="matrix(1.00, 0.00, -0.00, -1.00, 97.7, 4.9)">/</text><text xml:space="preserve" font-family="Helvetica-Light,Helvetica" font-size="17.0" fill="#000000" transform="matrix(1.00, 0.00, -0.00, -1.00, 102.5, 4.9)">/</text><text xml:space="preserve" font-family="Helvetica-Light,Helvetica" font-size="17.0" fill="#000000" transform="matrix(1.00, 0.00, -0.00, -1.00, 107.2, 4.9)">w</text><text xml:space="preserve" font-family="Helvetica-Light,Helvetica" font-size="17.0" fill="#000000" transform="matrix(1.00, 0.00, -0.00, -1.00, 119.5, 4.9)">w</text><text xml:space="preserve" font-family="Helvetica-Light,Helvetica" font-size="17.0" fill="#000000" transform="matrix(1.00, 0.00, -0.00, -1.00, 131.7, 4.9)">w</text><text xml:space="preserve" font-family="Helvetica-Light,Helvetica" font-size="17.0" fill="#000000" transform="matrix(1.00, 0.00, -0.00, -1.00, 143.1, 4.9)">.</text><text xml:space="preserve" font-family="Helvetica-Light,Helvetica" font-size="17.0" fill="#000000" transform="matrix(1.00, 0.00, -0.00, -1.00, 147.8, 4.9)">r</text><text xml:space="preserve" font-family="Helvetica-Light,Helvetica" font-size="17.0" fill="#000000" transform="matrix(1.00, 0.00, -0.00, -1.00, 153.5, 4.9)">a</text><text xml:space="preserve" font-family="Helvetica-Light,Helvetica" font-size="17.0" fill="#000000" transform="matrix(1.00, 0.00, -0.00, -1.00, 162.9, 4.9)">y</text><text xml:space="preserve" font-family="Helvetica-Light,Helvetica" font-size="17.0" fill="#000000" transform="matrix(1.00, 0.00, -0.00, -1.00, 171.4, 4.9)">m</text><text xml:space="preserve" font-family="Helvetica-Light,Helvetica" font-size="17.0" fill="#000000" transform="matrix(1.00, 0.00, -0.00, -1.00, 185.6, 4.9)">o</text><text xml:space="preserve" font-family="Helvetica-Light,Helvetica" font-size="17.0" fill="#000000" transform="matrix(1.00, 0.00, -0.00, -1.00, 195.0, 4.9)">n</text><text xml:space="preserve" font-family="Helvetica-Light,Helvetica" font-size="17.0" fill="#000000" transform="matrix(1.00, 0.00, -0.00, -1.00, 204.5, 4.9)">d</text><text xml:space="preserve" font-family="Helvetica-Light,Helvetica" font-size="17.0" fill="#000000" transform="matrix(1.00, 0.00, -0.00, -1.00, 214.9, 4.9)">h</text><text xml:space="preserve" font-family="Helvetica-Light,Helvetica" font-size="17.0" fill="#000000" transform="matrix(1.00, 0.00, -0.00, -1.00, 224.3, 4.9)">i</text><text xml:space="preserve" font-family="Helvetica-Light,Helvetica" font-size="17.0" fill="#000000" transform="matrix(1.00, 0.00, -0.00, -1.00, 228.1, 4.9)">l</text><text xml:space="preserve" font-family="Helvetica-Light,Helvetica" font-size="17.0" fill="#000000" transform="matrix(1.00, 0.00, -0.00, -1.00, 231.9, 4.9)">l</text><text xml:space="preserve" font-family="Helvetica-Light,Helvetica" font-size="17.0" fill="#000000" transform="matrix(1.00, 0.00, -0.00, -1.00, 235.7, 4.9)">.</text><text xml:space="preserve" font-family="Helvetica-Light,Helvetica" font-size="17.0" fill="#000000" transform="matrix(1.00, 0.00, -0.00, -1.00, 240.4, 4.9)">n</text><text xml:space="preserve" font-family="Helvetica-Light,Helvetica" font-size="17.0" fill="#000000" transform="matrix(1.00, 0.00, -0.00, -1.00, 249.8, 4.9)">e</text><text xml:space="preserve" font-family="Helvetica-Light,Helvetica" font-size="17.0" fill="#000000" transform="matrix(1.00, 0.00, -0.00, -1.00, 259.3, 4.9)">t</text><text xml:space="preserve" font-family="Helvetica-Light,Helvetica" font-size="17.0" fill="#000000" transform="matrix(1.00, 0.00, -0.00, -1.00, 264.0, 4.9)">/</text><text xml:space="preserve" font-family="Helvetica-Light,Helvetica" font-size="17.0" fill="#000000" transform="matrix(1.00, 0.00, -0.00, -1.00, 268.7, 4.9)">v</text><text xml:space="preserve" font-family="Helvetica-Light,Helvetica" font-size="17.0" fill="#000000" transform="matrix(1.00, 0.00, -0.00, -1.00, 277.2, 4.9)">o</text><text xml:space="preserve" font-family="Helvetica-Light,Helvetica" font-size="17.0" fill="#000000" transform="matrix(1.00, 0.00, -0.00, -1.00, 286.7, 4.9)">r</text><text xml:space="preserve" font-family="Helvetica-Light,Helvetica" font-size="17.0" fill="#000000" transform="matrix(1.00, 0.00, -0.00, -1.00, 292.0, 4.9)">o</text><text xml:space="preserve" font-family="Helvetica-Light,Helvetica" font-size="17.0" fill="#000000" transform="matrix(1.00, 0.00, -0.00, -1.00, 301.5, 4.9)">n</text><text xml:space="preserve" font-family="Helvetica-Light,Helvetica" font-size="17.0" fill="#000000" transform="matrix(1.00, 0.00, -0.00, -1.00, 310.9, 4.9)">o</text><text xml:space="preserve" font-family="Helvetica-Light,Helvetica" font-size="17.0" fill="#000000" transform="matrix(1.00, 0.00, -0.00, -1.00, 320.4, 4.9)">i</text><text xml:space="preserve" font-family="Helvetica-Light,Helvetica" font-size="17.0" fill="#000000" transform="matrix(1.00, 0.00, -0.00, -1.00, 324.2, 4.9)">/</text><text xml:space="preserve" font-family="Helvetica-Light,Helvetica" font-size="17.0" fill="#000000" transform="matrix(1.00, 0.00, -0.00, -1.00, 328.9, 4.9)">r</text><text xml:space="preserve" font-family="Helvetica-Light,Helvetica" font-size="17.0" fill="#000000" transform="matrix(1.00, 0.00, -0.00, -1.00, 334.6, 4.9)">h</text><text xml:space="preserve" font-family="Helvetica-Light,Helvetica" font-size="17.0" fill="#000000" transform="matrix(1.00, 0.00, -0.00, -1.00, 344.0, 4.9)">i</text><text xml:space="preserve" font-family="Helvetica-Light,Helvetica" font-size="17.0" fill="#000000" transform="matrix(1.00, 0.00, -0.00, -1.00, 347.8, 4.9)">l</text><text xml:space="preserve" font-family="Helvetica-Light,Helvetica" font-size="17.0" fill="#000000" transform="matrix(1.00, 0.00, -0.00, -1.00, 351.6, 4.9)">l</text><text xml:space="preserve" font-family="Helvetica-Light,Helvetica" font-size="17.0" fill="#000000" transform="matrix(1.00, 0.00, -0.00, -1.00, 355.3, 4.9)">-</text><text xml:space="preserve" font-family="Helvetica-Light,Helvetica" font-size="17.0" fill="#000000" transform="matrix(1.00, 0.00, -0.00, -1.00, 361.0, 4.9)">v</text><text xml:space="preserve" font-family="Helvetica-Light,Helvetica" font-size="17.0" fill="#000000" transform="matrix(1.00, 0.00, -0.00, -1.00, 369.5, 4.9)">o</text><text xml:space="preserve" font-family="Helvetica-Light,Helvetica" font-size="17.0" fill="#000000" transform="matrix(1.00, 0.00, -0.00, -1.00, 378.9, 4.9)">r</text><text xml:space="preserve" font-family="Helvetica-Light,Helvetica" font-size="17.0" fill="#000000" transform="matrix(1.00, 0.00, -0.00, -1.00, 384.3, 4.9)">o</text><text xml:space="preserve" font-family="Helvetica-Light,Helvetica" font-size="17.0" fill="#000000" transform="matrix(1.00, 0.00, -0.00, -1.00, 393.8, 4.9)">n</text><text xml:space="preserve" font-family="Helvetica-Light,Helvetica" font-size="17.0" fill="#000000" transform="matrix(1.00, 0.00, -0.00, -1.00, 403.2, 4.9)">o</text><text xml:space="preserve" font-family="Helvetica-Light,Helvetica" font-size="17.0" fill="#000000" transform="matrix(1.00, 0.00, -0.00, -1.00, 412.7, 4.9)">i</text><text xml:space="preserve" font-family="Helvetica-Light,Helvetica" font-size="17.0" fill="#000000" transform="matrix(1.00, 0.00, -0.00, -1.00, 416.4, 4.9)">.</text><text xml:space="preserve" font-family="Helvetica-Light,Helvetica" font-size="17.0" fill="#000000" transform="matrix(1.00, 0.00, -0.00, -1.00, 421.2, 4.9)">h</text><text xml:space="preserve" font-family="Helvetica-Light,Helvetica" font-size="17.0" fill="#000000" transform="matrix(1.00, 0.00, -0.00, -1.00, 430.6, 4.9)">t</text><text xml:space="preserve" font-family="Helvetica-Light,Helvetica" font-size="17.0" fill="#000000" transform="matrix(1.00, 0.00, -0.00, -1.00, 435.3, 4.9)">m</text><text xml:space="preserve" font-family="Helvetica-Light,Helvetica" font-size="17.0" fill="#000000" transform="matrix(1.00, 0.00, -0.00, -1.00, 449.5, 4.9)">l</text><g><clipPath id="clip0x608000cbcec0"><path d="M 62.7 2.2 L 453.3 2.2 L 453.3 5.1 L 62.7 5.1 Z M 62.7 2.2 "></path></clipPath><g clip-path="url(#clip0x608000cbcec0)"><path d="M 67.5 21.4 L 457.0 21.4 " fill="none" stroke="#000000" stroke-width="0.85" transform="matrix(1.00, 0.00, 0.00, -1.00, -3.8, 25.0)"></path></g></g></g></svg>