<?xml version="1.0" encoding="UTF-8" standalone="no"?><svg xmlns="http://www.w3.org/2000/svg" xmlns:xlink="http://www.w3.org/1999/xlink" clip-rule="evenodd" stroke-miterlimit="10" viewBox="0 0 1024 768"><desc>SVG generated by Keynote</desc><defs></defs><g transform="matrix(1.00, 0.00, -0.00, -1.00, 0.0, 768.0)"><path d="M 0.0 768.0 L 1024.0 768.0 L 1024.0 0.0 L 0.0 0.0 Z M 0.0 768.0 " fill="#FEFFFF"></path><image xlink:href="2DA4ECCAF6D50A9E0DA4D464E02FB903.png" width="1604.00" height="1202.00" transform="matrix(0.64, 0.00, -0.00, -0.64, 0.0, 768.0)"></image><text xml:space="preserve" font-family="Helvetica-Light,Helvetica" font-size="17.0" fill="#000000" transform="matrix(1.00, 0.00, -0.00, -1.00, 563.7, 12.9)">S</text><text xml:space="preserve" font-family="Helvetica-Light,Helvetica" font-size="17.0" fill="#000000" transform="matrix(1.00, 0.00, -0.00, -1.00, 574.1, 12.9)">o</text><text xml:space="preserve" font-family="Helvetica-Light,Helvetica" font-size="17.0" fill="#000000" transform="matrix(1.00, 0.00, -0.00, -1.00, 583.6, 12.9)">u</text><text xml:space="preserve" font-family="Helvetica-Light,Helvetica" font-size="17.0" fill="#000000" transform="matrix(1.00, 0.00, -0.00, -1.00, 593.0, 12.9)">r</text><text xml:space="preserve" font-family="Helvetica-Light,Helvetica" font-size="17.0" fill="#000000" transform="matrix(1.00, 0.00, -0.00, -1.00, 598.4, 12.9)">c</text><text xml:space="preserve" font-family="Helvetica-Light,Helvetica" font-size="17.0" fill="#000000" transform="matrix(1.00, 0.00, -0.00, -1.00, 607.8, 12.9)">e</text><text xml:space="preserve" font-family="Helvetica-Light,Helvetica" font-size="17.0" fill="#000000" transform="matrix(1.00, 0.00, -0.00, -1.00, 617.3, 12.9)">:</text><text xml:space="preserve" font-family="Helvetica-Light,Helvetica" font-size="17.0" fill="#000000" transform="matrix(1.00, 0.00, -0.00, -1.00, 622.0, 12.9)"> </text><text xml:space="preserve" font-family="Helvetica-Light,Helvetica" font-size="17.0" fill="#000000" transform="matrix(1.00, 0.00, -0.00, -1.00, 626.7, 12.9)">h</text><text xml:space="preserve" font-family="Helvetica-Light,Helvetica" font-size="17.0" fill="#000000" transform="matrix(1.00, 0.00, -0.00, -1.00, 636.2, 12.9)">t</text><text xml:space="preserve" font-family="Helvetica-Light,Helvetica" font-size="17.0" fill="#000000" transform="matrix(1.00, 0.00, -0.00, -1.00, 640.9, 12.9)">t</text><text xml:space="preserve" font-family="Helvetica-Light,Helvetica" font-size="17.0" fill="#000000" transform="matrix(1.00, 0.00, -0.00, -1.00, 645.6, 12.9)">p</text><text xml:space="preserve" font-family="Helvetica-Light,Helvetica" font-size="17.0" fill="#000000" transform="matrix(1.00, 0.00, -0.00, -1.00, 656.0, 12.9)">:</text><text xml:space="preserve" font-family="Helvetica-Light,Helvetica" font-size="17.0" fill="#000000" transform="matrix(1.00, 0.00, -0.00, -1.00, 660.7, 12.9)">/</text><text xml:space="preserve" font-family="Helvetica-Light,Helvetica" font-size="17.0" fill="#000000" transform="matrix(1.00, 0.00, -0.00, -1.00, 665.5, 12.9)">/</text><text xml:space="preserve" font-family="Helvetica-Light,Helvetica" font-size="17.0" fill="#000000" transform="matrix(1.00, 0.00, -0.00, -1.00, 670.2, 12.9)">w</text><text xml:space="preserve" font-family="Helvetica-Light,Helvetica" font-size="17.0" fill="#000000" transform="matrix(1.00, 0.00, -0.00, -1.00, 682.5, 12.9)">w</text><text xml:space="preserve" font-family="Helvetica-Light,Helvetica" font-size="17.0" fill="#000000" transform="matrix(1.00, 0.00, -0.00, -1.00, 694.7, 12.9)">w</text><text xml:space="preserve" font-family="Helvetica-Light,Helvetica" font-size="17.0" fill="#000000" transform="matrix(1.00, 0.00, -0.00, -1.00, 706.1, 12.9)">.</text><text xml:space="preserve" font-family="Helvetica-Light,Helvetica" font-size="17.0" fill="#000000" transform="matrix(1.00, 0.00, -0.00, -1.00, 710.8, 12.9)">r</text><text xml:space="preserve" font-family="Helvetica-Light,Helvetica" font-size="17.0" fill="#000000" transform="matrix(1.00, 0.00, -0.00, -1.00, 716.5, 12.9)">a</text><text xml:space="preserve" font-family="Helvetica-Light,Helvetica" font-size="17.0" fill="#000000" transform="matrix(1.00, 0.00, -0.00, -1.00, 725.9, 12.9)">y</text><text xml:space="preserve" font-family="Helvetica-Light,Helvetica" font-size="17.0" fill="#000000" transform="matrix(1.00, 0.00, -0.00, -1.00, 734.4, 12.9)">m</text><text xml:space="preserve" font-family="Helvetica-Light,Helvetica" font-size="17.0" fill="#000000" transform="matrix(1.00, 0.00, -0.00, -1.00, 748.6, 12.9)">o</text><text xml:space="preserve" font-family="Helvetica-Light,Helvetica" font-size="17.0" fill="#000000" transform="matrix(1.00, 0.00, -0.00, -1.00, 758.0, 12.9)">n</text><text xml:space="preserve" font-family="Helvetica-Light,Helvetica" font-size="17.0" fill="#000000" transform="matrix(1.00, 0.00, -0.00, -1.00, 767.5, 12.9)">d</text><text xml:space="preserve" font-family="Helvetica-Light,Helvetica" font-size="17.0" fill="#000000" transform="matrix(1.00, 0.00, -0.00, -1.00, 777.9, 12.9)">h</text><text xml:space="preserve" font-family="Helvetica-Light,Helvetica" font-size="17.0" fill="#000000" transform="matrix(1.00, 0.00, -0.00, -1.00, 787.3, 12.9)">i</text><text xml:space="preserve" font-family="Helvetica-Light,Helvetica" font-size="17.0" fill="#000000" transform="matrix(1.00, 0.00, -0.00, -1.00, 791.1, 12.9)">l</text><text xml:space="preserve" font-family="Helvetica-Light,Helvetica" font-size="17.0" fill="#000000" transform="matrix(1.00, 0.00, -0.00, -1.00, 794.9, 12.9)">l</text><text xml:space="preserve" font-family="Helvetica-Light,Helvetica" font-size="17.0" fill="#000000" transform="matrix(1.00, 0.00, -0.00, -1.00, 798.7, 12.9)">.</text><text xml:space="preserve" font-family="Helvetica-Light,Helvetica" font-size="17.0" fill="#000000" transform="matrix(1.00, 0.00, -0.00, -1.00, 803.4, 12.9)">n</text><text xml:space="preserve" font-family="Helvetica-Light,Helvetica" font-size="17.0" fill="#000000" transform="matrix(1.00, 0.00, -0.00, -1.00, 812.8, 12.9)">e</text><text xml:space="preserve" font-family="Helvetica-Light,Helvetica" font-size="17.0" fill="#000000" transform="matrix(1.00, 0.00, -0.00, -1.00, 822.3, 12.9)">t</text><text xml:space="preserve" font-family="Helvetica-Light,Helvetica" font-size="17.0" fill="#000000" transform="matrix(1.00, 0.00, -0.00, -1.00, 827.0, 12.9)">/</text><text xml:space="preserve" font-family="Helvetica-Light,Helvetica" font-size="17.0" fill="#000000" transform="matrix(1.00, 0.00, -0.00, -1.00, 831.7, 12.9)">v</text><text xml:space="preserve" font-family="Helvetica-Light,Helvetica" font-size="17.0" fill="#000000" transform="matrix(1.00, 0.00, -0.00, -1.00, 840.2, 12.9)">o</text><text xml:space="preserve" font-family="Helvetica-Light,Helvetica" font-size="17.0" fill="#000000" transform="matrix(1.00, 0.00, -0.00, -1.00, 849.7, 12.9)">r</text><text xml:space="preserve" font-family="Helvetica-Light,Helvetica" font-size="17.0" fill="#000000" transform="matrix(1.00, 0.00, -0.00, -1.00, 855.0, 12.9)">o</text><text xml:space="preserve" font-family="Helvetica-Light,Helvetica" font-size="17.0" fill="#000000" transform="matrix(1.00, 0.00, -0.00, -1.00, 864.5, 12.9)">n</text><text xml:space="preserve" font-family="Helvetica-Light,Helvetica" font-size="17.0" fill="#000000" transform="matrix(1.00, 0.00, -0.00, -1.00, 873.9, 12.9)">o</text><text xml:space="preserve" font-family="Helvetica-Light,Helvetica" font-size="17.0" fill="#000000" transform="matrix(1.00, 0.00, -0.00, -1.00, 883.4, 12.9)">i</text><text xml:space="preserve" font-family="Helvetica-Light,Helvetica" font-size="17.0" fill="#000000" transform="matrix(1.00, 0.00, -0.00, -1.00, 887.2, 12.9)">/</text><text xml:space="preserve" font-family="Helvetica-Light,Helvetica" font-size="17.0" fill="#000000" transform="matrix(1.00, 0.00, -0.00, -1.00, 891.9, 12.9)">r</text><text xml:space="preserve" font-family="Helvetica-Light,Helvetica" font-size="17.0" fill="#000000" transform="matrix(1.00, 0.00, -0.00, -1.00, 897.6, 12.9)">h</text><text xml:space="preserve" font-family="Helvetica-Light,Helvetica" font-size="17.0" fill="#000000" transform="matrix(1.00, 0.00, -0.00, -1.00, 907.0, 12.9)">i</text><text xml:space="preserve" font-family="Helvetica-Light,Helvetica" font-size="17.0" fill="#000000" transform="matrix(1.00, 0.00, -0.00, -1.00, 910.8, 12.9)">l</text><text xml:space="preserve" font-family="Helvetica-Light,Helvetica" font-size="17.0" fill="#000000" transform="matrix(1.00, 0.00, -0.00, -1.00, 914.6, 12.9)">l</text><text xml:space="preserve" font-family="Helvetica-Light,Helvetica" font-size="17.0" fill="#000000" transform="matrix(1.00, 0.00, -0.00, -1.00, 918.3, 12.9)">-</text><text xml:space="preserve" font-family="Helvetica-Light,Helvetica" font-size="17.0" fill="#000000" transform="matrix(1.00, 0.00, -0.00, -1.00, 924.0, 12.9)">v</text><text xml:space="preserve" font-family="Helvetica-Light,Helvetica" font-size="17.0" fill="#000000" transform="matrix(1.00, 0.00, -0.00, -1.00, 932.5, 12.9)">o</text><text xml:space="preserve" font-family="Helvetica-Light,Helvetica" font-size="17.0" fill="#000000" transform="matrix(1.00, 0.00, -0.00, -1.00, 941.9, 12.9)">r</text><text xml:space="preserve" font-family="Helvetica-Light,Helvetica" font-size="17.0" fill="#000000" transform="matrix(1.00, 0.00, -0.00, -1.00, 947.3, 12.9)">o</text><text xml:space="preserve" font-family="Helvetica-Light,Helvetica" font-size="17.0" fill="#000000" transform="matrix(1.00, 0.00, -0.00, -1.00, 956.8, 12.9)">n</text><text xml:space="preserve" font-family="Helvetica-Light,Helvetica" font-size="17.0" fill="#000000" transform="matrix(1.00, 0.00, -0.00, -1.00, 966.2, 12.9)">o</text><text xml:space="preserve" font-family="Helvetica-Light,Helvetica" font-size="17.0" fill="#000000" transform="matrix(1.00, 0.00, -0.00, -1.00, 975.7, 12.9)">i</text><text xml:space="preserve" font-family="Helvetica-Light,Helvetica" font-size="17.0" fill="#000000" transform="matrix(1.00, 0.00, -0.00, -1.00, 979.4, 12.9)">.</text><text xml:space="preserve" font-family="Helvetica-Light,Helvetica" font-size="17.0" fill="#000000" transform="matrix(1.00, 0.00, -0.00, -1.00, 984.2, 12.9)">h</text><text xml:space="preserve" font-family="Helvetica-Light,Helvetica" font-size="17.0" fill="#000000" transform="matrix(1.00, 0.00, -0.00, -1.00, 993.6, 12.9)">t</text><text xml:space="preserve" font-family="Helvetica-Light,Helvetica" font-size="17.0" fill="#000000" transform="matrix(1.00, 0.00, -0.00, -1.00, 998.3, 12.9)">m</text><text xml:space="preserve" font-family="Helvetica-Light,Helvetica" font-size="17.0" fill="#000000" transform="matrix(1.00, 0.00, -0.00, -1.00, 1012.5, 12.9)">l</text><g><clipPath id="clip0x608000cb6e00"><path d="M 625.7 10.2 L 1016.3 10.2 L 1016.3 13.1 L 625.7 13.1 Z M 625.7 10.2 "></path></clipPath><g clip-path="url(#clip0x608000cb6e00)"><path d="M 67.5 21.4 L 457.0 21.4 " fill="none" stroke="#000000" stroke-width="0.85" transform="matrix(1.00, 0.00, 0.00, -1.00, 559.2, 33.0)"></path></g></g></g></svg>