<?xml version="1.0" encoding="UTF-8" standalone="no"?><svg xmlns="http://www.w3.org/2000/svg" xmlns:xlink="http://www.w3.org/1999/xlink" clip-rule="evenodd" stroke-miterlimit="10" viewBox="0 0 1024 768"><desc>SVG generated by Keynote</desc><defs></defs><g transform="matrix(1.00, 0.00, -0.00, -1.00, 0.0, 768.0)"><path d="M 0.0 768.0 L 1024.0 768.0 L 1024.0 0.0 L 0.0 0.0 Z M 0.0 768.0 " fill="#FEFFFF"></path><g><clipPath id="clip0x600000ea6060"><path d="M 529.0 718.0 L 949.0 718.0 L 949.0 70.0 L 529.0 70.0 Z M 529.0 718.0 "></path></clipPath><g clip-path="url(#clip0x600000ea6060)"><image xlink:href="../../83121FBD-881D-456D-9792-C836EDFE3005/assets/9E07BE41CC81F14F252223C2C0F5B0FB.png" width="1010.00" height="1936.00" transform="matrix(0.42, 0.00, -0.00, -0.42, 529.0, 796.5)"></image></g></g><text xml:space="preserve" font-family="Helvetica-Light,Helvetica" font-size="60.0" fill="#000000" transform="matrix(1.00, 0.00, -0.00, -1.00, 38.8, 421.8)">V</text><text xml:space="preserve" font-family="Helvetica-Light,Helvetica" font-size="60.0" fill="#000000" transform="matrix(1.00, 0.00, -0.00, -1.00, 72.1, 421.8)">o</text><text xml:space="preserve" font-family="Helvetica-Light,Helvetica" font-size="60.0" fill="#000000" transform="matrix(1.00, 0.00, -0.00, -1.00, 105.5, 421.8)">r</text><text xml:space="preserve" font-family="Helvetica-Light,Helvetica" font-size="60.0" fill="#000000" transform="matrix(1.00, 0.00, -0.00, -1.00, 124.4, 421.8)">o</text><text xml:space="preserve" font-family="Helvetica-Light,Helvetica" font-size="60.0" fill="#000000" transform="matrix(1.00, 0.00, -0.00, -1.00, 157.7, 421.8)">n</text><text xml:space="preserve" font-family="Helvetica-Light,Helvetica" font-size="60.0" fill="#000000" transform="matrix(1.00, 0.00, -0.00, -1.00, 191.1, 421.8)">o</text><text xml:space="preserve" font-family="Helvetica-Light,Helvetica" font-size="60.0" fill="#000000" transform="matrix(1.00, 0.00, -0.00, -1.00, 224.5, 421.8)">i</text><text xml:space="preserve" font-family="Helvetica-Light,Helvetica" font-size="60.0" fill="#000000" transform="matrix(1.00, 0.00, -0.00, -1.00, 237.8, 421.8)"> </text><text xml:space="preserve" font-family="Helvetica-Light,Helvetica" font-size="60.0" fill="#000000" transform="matrix(1.00, 0.00, -0.00, -1.00, 254.5, 421.8)">D</text><text xml:space="preserve" font-family="Helvetica-Light,Helvetica" font-size="60.0" fill="#000000" transform="matrix(1.00, 0.00, -0.00, -1.00, 297.8, 421.8)">i</text><text xml:space="preserve" font-family="Helvetica-Light,Helvetica" font-size="60.0" fill="#000000" transform="matrix(1.00, 0.00, -0.00, -1.00, 311.1, 421.8)">a</text><text xml:space="preserve" font-family="Helvetica-Light,Helvetica" font-size="60.0" fill="#000000" transform="matrix(1.00, 0.00, -0.00, -1.00, 344.5, 421.8)">g</text><text xml:space="preserve" font-family="Helvetica-Light,Helvetica" font-size="60.0" fill="#000000" transform="matrix(1.00, 0.00, -0.00, -1.00, 381.1, 421.8)">r</text><text xml:space="preserve" font-family="Helvetica-Light,Helvetica" font-size="60.0" fill="#000000" transform="matrix(1.00, 0.00, -0.00, -1.00, 401.1, 421.8)">a</text><text xml:space="preserve" font-family="Helvetica-Light,Helvetica" font-size="60.0" fill="#000000" transform="matrix(1.00, 0.00, -0.00, -1.00, 434.5, 421.8)">m</text><text xml:space="preserve" font-family="Helvetica-Light,Helvetica" font-size="28.5" fill="#000000" transform="matrix(1.00, 0.00, -0.00, -1.00, 140.7, 360.5)"> </text><text xml:space="preserve" font-family="Helvetica-Light,Helvetica" font-size="28.5" fill="#000000" transform="matrix(1.00, 0.00, -0.00, -1.00, 148.6, 360.5)">P</text><text xml:space="preserve" font-family="Helvetica-Light,Helvetica" font-size="28.5" fill="#000000" transform="matrix(1.00, 0.00, -0.00, -1.00, 166.0, 360.5)">a</text><text xml:space="preserve" font-family="Helvetica-Light,Helvetica" font-size="28.5" fill="#000000" transform="matrix(1.00, 0.00, -0.00, -1.00, 181.9, 360.5)">r</text><text xml:space="preserve" font-family="Helvetica-Light,Helvetica" font-size="28.5" fill="#000000" transform="matrix(1.00, 0.00, -0.00, -1.00, 191.9, 360.5)">t</text><text xml:space="preserve" font-family="Helvetica-Light,Helvetica" font-size="28.5" fill="#000000" transform="matrix(1.00, 0.00, -0.00, -1.00, 199.8, 360.5)">i</text><text xml:space="preserve" font-family="Helvetica-Light,Helvetica" font-size="28.5" fill="#000000" transform="matrix(1.00, 0.00, -0.00, -1.00, 206.1, 360.5)">t</text><text xml:space="preserve" font-family="Helvetica-Light,Helvetica" font-size="28.5" fill="#000000" transform="matrix(1.00, 0.00, -0.00, -1.00, 214.0, 360.5)">i</text><text xml:space="preserve" font-family="Helvetica-Light,Helvetica" font-size="28.5" fill="#000000" transform="matrix(1.00, 0.00, -0.00, -1.00, 220.3, 360.5)">o</text><text xml:space="preserve" font-family="Helvetica-Light,Helvetica" font-size="28.5" fill="#000000" transform="matrix(1.00, 0.00, -0.00, -1.00, 236.2, 360.5)">n</text><text xml:space="preserve" font-family="Helvetica-Light,Helvetica" font-size="28.5" fill="#000000" transform="matrix(1.00, 0.00, -0.00, -1.00, 252.0, 360.5)">i</text><text xml:space="preserve" font-family="Helvetica-Light,Helvetica" font-size="28.5" fill="#000000" transform="matrix(1.00, 0.00, -0.00, -1.00, 258.3, 360.5)">n</text><text xml:space="preserve" font-family="Helvetica-Light,Helvetica" font-size="28.5" fill="#000000" transform="matrix(1.00, 0.00, -0.00, -1.00, 274.2, 360.5)">g</text><text xml:space="preserve" font-family="Helvetica-Light,Helvetica" font-size="28.5" fill="#000000" transform="matrix(1.00, 0.00, -0.00, -1.00, 291.6, 360.5)"> </text><text xml:space="preserve" font-family="Helvetica-Light,Helvetica" font-size="28.5" fill="#000000" transform="matrix(1.00, 0.00, -0.00, -1.00, 299.5, 360.5)">o</text><text xml:space="preserve" font-family="Helvetica-Light,Helvetica" font-size="28.5" fill="#000000" transform="matrix(1.00, 0.00, -0.00, -1.00, 315.3, 360.5)">f</text><text xml:space="preserve" font-family="Helvetica-Light,Helvetica" font-size="28.5" fill="#000000" transform="matrix(1.00, 0.00, -0.00, -1.00, 323.2, 360.5)"> </text><text xml:space="preserve" font-family="Helvetica-Light,Helvetica" font-size="28.5" fill="#000000" transform="matrix(1.00, 0.00, -0.00, -1.00, 331.2, 360.5)">a</text><text xml:space="preserve" font-family="Helvetica-Light,Helvetica" font-size="28.5" fill="#000000" transform="matrix(1.00, 0.00, -0.00, -1.00, 347.0, 360.5)"> </text><text xml:space="preserve" font-family="Helvetica-Bold,Helvetica" font-weight="bold" font-size="28.5" fill="#000000" transform="matrix(1.00, 0.00, -0.00, -1.00, 354.9, 360.5)">p</text><text xml:space="preserve" font-family="Helvetica-Bold,Helvetica" font-weight="bold" font-size="28.5" fill="#000000" transform="matrix(1.00, 0.00, -0.00, -1.00, 372.3, 360.5)">l</text><text xml:space="preserve" font-family="Helvetica-Bold,Helvetica" font-weight="bold" font-size="28.5" fill="#000000" transform="matrix(1.00, 0.00, -0.00, -1.00, 380.2, 360.5)">a</text><text xml:space="preserve" font-family="Helvetica-Bold,Helvetica" font-weight="bold" font-size="28.5" fill="#000000" transform="matrix(1.00, 0.00, -0.00, -1.00, 396.0, 360.5)">n</text><text xml:space="preserve" font-family="Helvetica-Bold,Helvetica" font-weight="bold" font-size="28.5" fill="#000000" transform="matrix(1.00, 0.00, -0.00, -1.00, 413.4, 360.5)">e</text><text xml:space="preserve" font-family="Helvetica-Light,Helvetica" font-size="28.5" fill="#000000" transform="matrix(1.00, 0.00, -0.00, -1.00, 429.3, 360.5)"> </text><text xml:space="preserve" font-family="Helvetica-Light,Helvetica" font-size="28.5" fill="#000000" transform="matrix(1.00, 0.00, -0.00, -1.00, 145.7, 325.5)">w</text><text xml:space="preserve" font-family="Helvetica-Light,Helvetica" font-size="28.5" fill="#000000" transform="matrix(1.00, 0.00, -0.00, -1.00, 166.3, 325.5)">i</text><text xml:space="preserve" font-family="Helvetica-Light,Helvetica" font-size="28.5" fill="#000000" transform="matrix(1.00, 0.00, -0.00, -1.00, 172.6, 325.5)">t</text><text xml:space="preserve" font-family="Helvetica-Light,Helvetica" font-size="28.5" fill="#000000" transform="matrix(1.00, 0.00, -0.00, -1.00, 180.6, 325.5)">h</text><text xml:space="preserve" font-family="Helvetica-Light,Helvetica" font-size="28.5" fill="#000000" transform="matrix(1.00, 0.00, -0.00, -1.00, 196.4, 325.5)"> </text><text xml:space="preserve" font-family="Helvetica-LightOblique,Helvetica" font-style="italic" font-size="28.5" fill="#000000" transform="matrix(1.00, 0.00, -0.00, -1.00, 204.3, 325.5)">n</text><text xml:space="preserve" font-family="Helvetica-Light,Helvetica" font-size="28.5" fill="#000000" transform="matrix(1.00, 0.00, -0.00, -1.00, 220.1, 325.5)"> </text><text xml:space="preserve" font-family="Helvetica-Bold,Helvetica" font-weight="bold" font-size="28.5" fill="#000000" transform="matrix(1.00, 0.00, -0.00, -1.00, 228.1, 325.5)">o</text><text xml:space="preserve" font-family="Helvetica-Bold,Helvetica" font-weight="bold" font-size="28.5" fill="#000000" transform="matrix(1.00, 0.00, -0.00, -1.00, 245.4, 325.5)">r</text><text xml:space="preserve" font-family="Helvetica-Bold,Helvetica" font-weight="bold" font-size="28.5" fill="#000000" transform="matrix(1.00, 0.00, -0.00, -1.00, 256.5, 325.5)">i</text><text xml:space="preserve" font-family="Helvetica-Bold,Helvetica" font-weight="bold" font-size="28.5" fill="#000000" transform="matrix(1.00, 0.00, -0.00, -1.00, 264.4, 325.5)">g</text><text xml:space="preserve" font-family="Helvetica-Bold,Helvetica" font-weight="bold" font-size="28.5" fill="#000000" transform="matrix(1.00, 0.00, -0.00, -1.00, 281.8, 325.5)">i</text><text xml:space="preserve" font-family="Helvetica-Bold,Helvetica" font-weight="bold" font-size="28.5" fill="#000000" transform="matrix(1.00, 0.00, -0.00, -1.00, 289.7, 325.5)">n</text><text xml:space="preserve" font-family="Helvetica-Bold,Helvetica" font-weight="bold" font-size="28.5" fill="#000000" transform="matrix(1.00, 0.00, -0.00, -1.00, 307.1, 325.5)">a</text><text xml:space="preserve" font-family="Helvetica-Bold,Helvetica" font-weight="bold" font-size="28.5" fill="#000000" transform="matrix(1.00, 0.00, -0.00, -1.00, 323.0, 325.5)">l</text><text xml:space="preserve" font-family="Helvetica-Light,Helvetica" font-size="28.5" fill="#000000" transform="matrix(1.00, 0.00, -0.00, -1.00, 330.9, 325.5)"> </text><text xml:space="preserve" font-family="Helvetica-Bold,Helvetica" font-weight="bold" font-size="28.5" fill="#000000" transform="matrix(1.00, 0.00, -0.00, -1.00, 338.8, 325.5)">p</text><text xml:space="preserve" font-family="Helvetica-Bold,Helvetica" font-weight="bold" font-size="28.5" fill="#000000" transform="matrix(1.00, 0.00, -0.00, -1.00, 356.2, 325.5)">o</text><text xml:space="preserve" font-family="Helvetica-Bold,Helvetica" font-weight="bold" font-size="28.5" fill="#000000" transform="matrix(1.00, 0.00, -0.00, -1.00, 373.6, 325.5)">i</text><text xml:space="preserve" font-family="Helvetica-Bold,Helvetica" font-weight="bold" font-size="28.5" fill="#000000" transform="matrix(1.00, 0.00, -0.00, -1.00, 381.5, 325.5)">n</text><text xml:space="preserve" font-family="Helvetica-Bold,Helvetica" font-weight="bold" font-size="28.5" fill="#000000" transform="matrix(1.00, 0.00, -0.00, -1.00, 398.9, 325.5)">t</text><text xml:space="preserve" font-family="Helvetica-Bold,Helvetica" font-weight="bold" font-size="28.5" fill="#000000" transform="matrix(1.00, 0.00, -0.00, -1.00, 408.4, 325.5)">s</text><text xml:space="preserve" font-family="Helvetica-Light,Helvetica" font-size="28.5" fill="#000000" transform="matrix(1.00, 0.00, -0.00, -1.00, 137.8, 290.5)">i</text><text xml:space="preserve" font-family="Helvetica-Light,Helvetica" font-size="28.5" fill="#000000" transform="matrix(1.00, 0.00, -0.00, -1.00, 144.1, 290.5)">n</text><text xml:space="preserve" font-family="Helvetica-Light,Helvetica" font-size="28.5" fill="#000000" transform="matrix(1.00, 0.00, -0.00, -1.00, 160.0, 290.5)">t</text><text xml:space="preserve" font-family="Helvetica-Light,Helvetica" font-size="28.5" fill="#000000" transform="matrix(1.00, 0.00, -0.00, -1.00, 167.9, 290.5)">o</text><text xml:space="preserve" font-family="Helvetica-Light,Helvetica" font-size="28.5" fill="#000000" transform="matrix(1.00, 0.00, -0.00, -1.00, 183.7, 290.5)"> </text><text xml:space="preserve" font-family="Helvetica-Bold,Helvetica" font-weight="bold" font-size="28.5" fill="#000000" transform="matrix(1.00, 0.00, -0.00, -1.00, 191.6, 290.5)">c</text><text xml:space="preserve" font-family="Helvetica-Bold,Helvetica" font-weight="bold" font-size="28.5" fill="#000000" transform="matrix(1.00, 0.00, -0.00, -1.00, 207.5, 290.5)">o</text><text xml:space="preserve" font-family="Helvetica-Bold,Helvetica" font-weight="bold" font-size="28.5" fill="#000000" transform="matrix(1.00, 0.00, -0.00, -1.00, 224.9, 290.5)">n</text><text xml:space="preserve" font-family="Helvetica-Bold,Helvetica" font-weight="bold" font-size="28.5" fill="#000000" transform="matrix(1.00, 0.00, -0.00, -1.00, 242.3, 290.5)">v</text><text xml:space="preserve" font-family="Helvetica-Bold,Helvetica" font-weight="bold" font-size="28.5" fill="#000000" transform="matrix(1.00, 0.00, -0.00, -1.00, 258.1, 290.5)">e</text><text xml:space="preserve" font-family="Helvetica-Bold,Helvetica" font-weight="bold" font-size="28.5" fill="#000000" transform="matrix(1.00, 0.00, -0.00, -1.00, 274.0, 290.5)">x</text><text xml:space="preserve" font-family="Helvetica-Bold,Helvetica" font-weight="bold" font-size="28.5" fill="#000000" transform="matrix(1.00, 0.00, -0.00, -1.00, 289.8, 290.5)"> </text><text xml:space="preserve" font-family="Helvetica-Bold,Helvetica" font-weight="bold" font-size="28.5" fill="#000000" transform="matrix(1.00, 0.00, -0.00, -1.00, 297.7, 290.5)">p</text><text xml:space="preserve" font-family="Helvetica-Bold,Helvetica" font-weight="bold" font-size="28.5" fill="#000000" transform="matrix(1.00, 0.00, -0.00, -1.00, 315.1, 290.5)">o</text><text xml:space="preserve" font-family="Helvetica-Bold,Helvetica" font-weight="bold" font-size="28.5" fill="#000000" transform="matrix(1.00, 0.00, -0.00, -1.00, 332.5, 290.5)">l</text><text xml:space="preserve" font-family="Helvetica-Bold,Helvetica" font-weight="bold" font-size="28.5" fill="#000000" transform="matrix(1.00, 0.00, -0.00, -1.00, 340.5, 290.5)">y</text><text xml:space="preserve" font-family="Helvetica-Bold,Helvetica" font-weight="bold" font-size="28.5" fill="#000000" transform="matrix(1.00, 0.00, -0.00, -1.00, 356.3, 290.5)">g</text><text xml:space="preserve" font-family="Helvetica-Bold,Helvetica" font-weight="bold" font-size="28.5" fill="#000000" transform="matrix(1.00, 0.00, -0.00, -1.00, 373.7, 290.5)">o</text><text xml:space="preserve" font-family="Helvetica-Bold,Helvetica" font-weight="bold" font-size="28.5" fill="#000000" transform="matrix(1.00, 0.00, -0.00, -1.00, 391.1, 290.5)">n</text><text xml:space="preserve" font-family="Helvetica-Bold,Helvetica" font-weight="bold" font-size="28.5" fill="#000000" transform="matrix(1.00, 0.00, -0.00, -1.00, 408.5, 290.5)">s</text><text xml:space="preserve" font-family="Helvetica-Bold,Helvetica" font-weight="bold" font-size="28.5" fill="#000000" transform="matrix(1.00, 0.00, -0.00, -1.00, 424.4, 290.5)">,</text><text xml:space="preserve" font-family="Helvetica-Light,Helvetica" font-size="28.5" fill="#000000" transform="matrix(1.00, 0.00, -0.00, -1.00, 80.8, 255.5)">e</text><text xml:space="preserve" font-family="Helvetica-Light,Helvetica" font-size="28.5" fill="#000000" transform="matrix(1.00, 0.00, -0.00, -1.00, 96.6, 255.5)">a</text><text xml:space="preserve" font-family="Helvetica-Light,Helvetica" font-size="28.5" fill="#000000" transform="matrix(1.00, 0.00, -0.00, -1.00, 112.5, 255.5)">c</text><text xml:space="preserve" font-family="Helvetica-Light,Helvetica" font-size="28.5" fill="#000000" transform="matrix(1.00, 0.00, -0.00, -1.00, 128.3, 255.5)">h</text><text xml:space="preserve" font-family="Helvetica-Light,Helvetica" font-size="28.5" fill="#000000" transform="matrix(1.00, 0.00, -0.00, -1.00, 144.1, 255.5)"> </text><text xml:space="preserve" font-family="Helvetica-Light,Helvetica" font-size="28.5" fill="#000000" transform="matrix(1.00, 0.00, -0.00, -1.00, 152.1, 255.5)">c</text><text xml:space="preserve" font-family="Helvetica-Light,Helvetica" font-size="28.5" fill="#000000" transform="matrix(1.00, 0.00, -0.00, -1.00, 167.9, 255.5)">o</text><text xml:space="preserve" font-family="Helvetica-Light,Helvetica" font-size="28.5" fill="#000000" transform="matrix(1.00, 0.00, -0.00, -1.00, 183.7, 255.5)">n</text><text xml:space="preserve" font-family="Helvetica-Light,Helvetica" font-size="28.5" fill="#000000" transform="matrix(1.00, 0.00, -0.00, -1.00, 199.6, 255.5)">t</text><text xml:space="preserve" font-family="Helvetica-Light,Helvetica" font-size="28.5" fill="#000000" transform="matrix(1.00, 0.00, -0.00, -1.00, 207.5, 255.5)">a</text><text xml:space="preserve" font-family="Helvetica-Light,Helvetica" font-size="28.5" fill="#000000" transform="matrix(1.00, 0.00, -0.00, -1.00, 223.3, 255.5)">i</text><text xml:space="preserve" font-family="Helvetica-Light,Helvetica" font-size="28.5" fill="#000000" transform="matrix(1.00, 0.00, -0.00, -1.00, 229.6, 255.5)">n</text><text xml:space="preserve" font-family="Helvetica-Light,Helvetica" font-size="28.5" fill="#000000" transform="matrix(1.00, 0.00, -0.00, -1.00, 245.5, 255.5)">i</text><text xml:space="preserve" font-family="Helvetica-Light,Helvetica" font-size="28.5" fill="#000000" transform="matrix(1.00, 0.00, -0.00, -1.00, 251.8, 255.5)">n</text><text xml:space="preserve" font-family="Helvetica-Light,Helvetica" font-size="28.5" fill="#000000" transform="matrix(1.00, 0.00, -0.00, -1.00, 267.6, 255.5)">g</text><text xml:space="preserve" font-family="Helvetica-Light,Helvetica" font-size="28.5" fill="#000000" transform="matrix(1.00, 0.00, -0.00, -1.00, 285.0, 255.5)"> </text><text xml:space="preserve" font-family="Helvetica-Light,Helvetica" font-size="28.5" fill="#000000" transform="matrix(1.00, 0.00, -0.00, -1.00, 292.9, 255.5)">1</text><text xml:space="preserve" font-family="Helvetica-Light,Helvetica" font-size="28.5" fill="#000000" transform="matrix(1.00, 0.00, -0.00, -1.00, 308.8, 255.5)"> </text><text xml:space="preserve" font-family="Helvetica-Light,Helvetica" font-size="28.5" fill="#000000" transform="matrix(1.00, 0.00, -0.00, -1.00, 316.7, 255.5)">o</text><text xml:space="preserve" font-family="Helvetica-Light,Helvetica" font-size="28.5" fill="#000000" transform="matrix(1.00, 0.00, -0.00, -1.00, 332.5, 255.5)">r</text><text xml:space="preserve" font-family="Helvetica-Light,Helvetica" font-size="28.5" fill="#000000" transform="matrix(1.00, 0.00, -0.00, -1.00, 342.0, 255.5)">i</text><text xml:space="preserve" font-family="Helvetica-Light,Helvetica" font-size="28.5" fill="#000000" transform="matrix(1.00, 0.00, -0.00, -1.00, 348.3, 255.5)">g</text><text xml:space="preserve" font-family="Helvetica-Light,Helvetica" font-size="28.5" fill="#000000" transform="matrix(1.00, 0.00, -0.00, -1.00, 365.7, 255.5)">i</text><text xml:space="preserve" font-family="Helvetica-Light,Helvetica" font-size="28.5" fill="#000000" transform="matrix(1.00, 0.00, -0.00, -1.00, 372.1, 255.5)">n</text><text xml:space="preserve" font-family="Helvetica-Light,Helvetica" font-size="28.5" fill="#000000" transform="matrix(1.00, 0.00, -0.00, -1.00, 387.9, 255.5)">a</text><text xml:space="preserve" font-family="Helvetica-Light,Helvetica" font-size="28.5" fill="#000000" transform="matrix(1.00, 0.00, -0.00, -1.00, 403.7, 255.5)">l</text><text xml:space="preserve" font-family="Helvetica-Light,Helvetica" font-size="28.5" fill="#000000" transform="matrix(1.00, 0.00, -0.00, -1.00, 410.1, 255.5)"> </text><text xml:space="preserve" font-family="Helvetica-Light,Helvetica" font-size="28.5" fill="#000000" transform="matrix(1.00, 0.00, -0.00, -1.00, 418.0, 255.5)">p</text><text xml:space="preserve" font-family="Helvetica-Light,Helvetica" font-size="28.5" fill="#000000" transform="matrix(1.00, 0.00, -0.00, -1.00, 435.4, 255.5)">o</text><text xml:space="preserve" font-family="Helvetica-Light,Helvetica" font-size="28.5" fill="#000000" transform="matrix(1.00, 0.00, -0.00, -1.00, 451.2, 255.5)">i</text><text xml:space="preserve" font-family="Helvetica-Light,Helvetica" font-size="28.5" fill="#000000" transform="matrix(1.00, 0.00, -0.00, -1.00, 457.5, 255.5)">n</text><text xml:space="preserve" font-family="Helvetica-Light,Helvetica" font-size="28.5" fill="#000000" transform="matrix(1.00, 0.00, -0.00, -1.00, 473.4, 255.5)">t</text><text xml:space="preserve" font-family="Helvetica-Light,Helvetica" font-size="28.5" fill="#000000" transform="matrix(1.00, 0.00, -0.00, -1.00, 481.3, 255.5)">,</text><text xml:space="preserve" font-family="Helvetica-Light,Helvetica" font-size="28.5" fill="#000000" transform="matrix(1.00, 0.00, -0.00, -1.00, 489.2, 255.5)"> </text><text xml:space="preserve" font-family="Helvetica-Light,Helvetica" font-size="28.5" fill="#000000" transform="matrix(1.00, 0.00, -0.00, -1.00, 497.1, 255.5)"> </text><text xml:space="preserve" font-family="Helvetica-Light,Helvetica" font-size="28.5" fill="#000000" transform="matrix(1.00, 0.00, -0.00, -1.00, 82.6, 220.5)">s</text><text xml:space="preserve" font-family="Helvetica-Light,Helvetica" font-size="28.5" fill="#000000" transform="matrix(1.00, 0.00, -0.00, -1.00, 96.9, 220.5)">o</text><text xml:space="preserve" font-family="Helvetica-Light,Helvetica" font-size="28.5" fill="#000000" transform="matrix(1.00, 0.00, -0.00, -1.00, 112.7, 220.5)"> </text><text xml:space="preserve" font-family="Helvetica-Light,Helvetica" font-size="28.5" fill="#000000" transform="matrix(1.00, 0.00, -0.00, -1.00, 120.6, 220.5)">t</text><text xml:space="preserve" font-family="Helvetica-Light,Helvetica" font-size="28.5" fill="#000000" transform="matrix(1.00, 0.00, -0.00, -1.00, 128.5, 220.5)">h</text><text xml:space="preserve" font-family="Helvetica-Light,Helvetica" font-size="28.5" fill="#000000" transform="matrix(1.00, 0.00, -0.00, -1.00, 144.4, 220.5)">a</text><text xml:space="preserve" font-family="Helvetica-Light,Helvetica" font-size="28.5" fill="#000000" transform="matrix(1.00, 0.00, -0.00, -1.00, 160.2, 220.5)">t</text><text xml:space="preserve" font-family="Helvetica-Light,Helvetica" font-size="28.5" fill="#000000" transform="matrix(1.00, 0.00, -0.00, -1.00, 168.1, 220.5)"> </text><text xml:space="preserve" font-family="Helvetica-Light,Helvetica" font-size="28.5" fill="#000000" transform="matrix(1.00, 0.00, -0.00, -1.00, 176.0, 220.5)">e</text><text xml:space="preserve" font-family="Helvetica-Light,Helvetica" font-size="28.5" fill="#000000" transform="matrix(1.00, 0.00, -0.00, -1.00, 191.9, 220.5)">a</text><text xml:space="preserve" font-family="Helvetica-Light,Helvetica" font-size="28.5" fill="#000000" transform="matrix(1.00, 0.00, -0.00, -1.00, 207.7, 220.5)">c</text><text xml:space="preserve" font-family="Helvetica-Light,Helvetica" font-size="28.5" fill="#000000" transform="matrix(1.00, 0.00, -0.00, -1.00, 223.5, 220.5)">h</text><text xml:space="preserve" font-family="Helvetica-Light,Helvetica" font-size="28.5" fill="#000000" transform="matrix(1.00, 0.00, -0.00, -1.00, 239.4, 220.5)"> </text><text xml:space="preserve" font-family="Helvetica-Light,Helvetica" font-size="28.5" fill="#000000" transform="matrix(1.00, 0.00, -0.00, -1.00, 247.3, 220.5)">c</text><text xml:space="preserve" font-family="Helvetica-Light,Helvetica" font-size="28.5" fill="#000000" transform="matrix(1.00, 0.00, -0.00, -1.00, 263.1, 220.5)">o</text><text xml:space="preserve" font-family="Helvetica-Light,Helvetica" font-size="28.5" fill="#000000" transform="matrix(1.00, 0.00, -0.00, -1.00, 279.0, 220.5)">o</text><text xml:space="preserve" font-family="Helvetica-Light,Helvetica" font-size="28.5" fill="#000000" transform="matrix(1.00, 0.00, -0.00, -1.00, 294.8, 220.5)">r</text><text xml:space="preserve" font-family="Helvetica-Light,Helvetica" font-size="28.5" fill="#000000" transform="matrix(1.00, 0.00, -0.00, -1.00, 303.8, 220.5)">d</text><text xml:space="preserve" font-family="Helvetica-Light,Helvetica" font-size="28.5" fill="#000000" transform="matrix(1.00, 0.00, -0.00, -1.00, 321.2, 220.5)">i</text><text xml:space="preserve" font-family="Helvetica-Light,Helvetica" font-size="28.5" fill="#000000" transform="matrix(1.00, 0.00, -0.00, -1.00, 327.5, 220.5)">n</text><text xml:space="preserve" font-family="Helvetica-Light,Helvetica" font-size="28.5" fill="#000000" transform="matrix(1.00, 0.00, -0.00, -1.00, 343.3, 220.5)">a</text><text xml:space="preserve" font-family="Helvetica-Light,Helvetica" font-size="28.5" fill="#000000" transform="matrix(1.00, 0.00, -0.00, -1.00, 359.2, 220.5)">t</text><text xml:space="preserve" font-family="Helvetica-Light,Helvetica" font-size="28.5" fill="#000000" transform="matrix(1.00, 0.00, -0.00, -1.00, 367.1, 220.5)">e</text><text xml:space="preserve" font-family="Helvetica-Light,Helvetica" font-size="28.5" fill="#000000" transform="matrix(1.00, 0.00, -0.00, -1.00, 382.9, 220.5)"> </text><text xml:space="preserve" font-family="Helvetica-Light,Helvetica" font-size="28.5" fill="#000000" transform="matrix(1.00, 0.00, -0.00, -1.00, 390.8, 220.5)">w</text><text xml:space="preserve" font-family="Helvetica-Light,Helvetica" font-size="28.5" fill="#000000" transform="matrix(1.00, 0.00, -0.00, -1.00, 411.4, 220.5)">i</text><text xml:space="preserve" font-family="Helvetica-Light,Helvetica" font-size="28.5" fill="#000000" transform="matrix(1.00, 0.00, -0.00, -1.00, 417.7, 220.5)">t</text><text xml:space="preserve" font-family="Helvetica-Light,Helvetica" font-size="28.5" fill="#000000" transform="matrix(1.00, 0.00, -0.00, -1.00, 425.6, 220.5)">h</text><text xml:space="preserve" font-family="Helvetica-Light,Helvetica" font-size="28.5" fill="#000000" transform="matrix(1.00, 0.00, -0.00, -1.00, 441.5, 220.5)">i</text><text xml:space="preserve" font-family="Helvetica-Light,Helvetica" font-size="28.5" fill="#000000" transform="matrix(1.00, 0.00, -0.00, -1.00, 447.8, 220.5)">n</text><text xml:space="preserve" font-family="Helvetica-Light,Helvetica" font-size="28.5" fill="#000000" transform="matrix(1.00, 0.00, -0.00, -1.00, 463.6, 220.5)"> </text><text xml:space="preserve" font-family="Helvetica-Light,Helvetica" font-size="28.5" fill="#000000" transform="matrix(1.00, 0.00, -0.00, -1.00, 471.5, 220.5)">a</text><text xml:space="preserve" font-family="Helvetica-Light,Helvetica" font-size="28.5" fill="#000000" transform="matrix(1.00, 0.00, -0.00, -1.00, 487.4, 220.5)"> </text><text xml:space="preserve" font-family="Helvetica-Light,Helvetica" font-size="28.5" fill="#000000" transform="matrix(1.00, 0.00, -0.00, -1.00, 134.1, 185.5)">p</text><text xml:space="preserve" font-family="Helvetica-Light,Helvetica" font-size="28.5" fill="#000000" transform="matrix(1.00, 0.00, -0.00, -1.00, 151.5, 185.5)">o</text><text xml:space="preserve" font-family="Helvetica-Light,Helvetica" font-size="28.5" fill="#000000" transform="matrix(1.00, 0.00, -0.00, -1.00, 167.3, 185.5)">l</text><text xml:space="preserve" font-family="Helvetica-Light,Helvetica" font-size="28.5" fill="#000000" transform="matrix(1.00, 0.00, -0.00, -1.00, 173.7, 185.5)">y</text><text xml:space="preserve" font-family="Helvetica-Light,Helvetica" font-size="28.5" fill="#000000" transform="matrix(1.00, 0.00, -0.00, -1.00, 187.9, 185.5)">g</text><text xml:space="preserve" font-family="Helvetica-Light,Helvetica" font-size="28.5" fill="#000000" transform="matrix(1.00, 0.00, -0.00, -1.00, 205.3, 185.5)">o</text><text xml:space="preserve" font-family="Helvetica-Light,Helvetica" font-size="28.5" fill="#000000" transform="matrix(1.00, 0.00, -0.00, -1.00, 221.1, 185.5)">n</text><text xml:space="preserve" font-family="Helvetica-Light,Helvetica" font-size="28.5" fill="#000000" transform="matrix(1.00, 0.00, -0.00, -1.00, 237.0, 185.5)"> </text><text xml:space="preserve" font-family="Helvetica-Light,Helvetica" font-size="28.5" fill="#000000" transform="matrix(1.00, 0.00, -0.00, -1.00, 244.9, 185.5)">i</text><text xml:space="preserve" font-family="Helvetica-Light,Helvetica" font-size="28.5" fill="#000000" transform="matrix(1.00, 0.00, -0.00, -1.00, 251.2, 185.5)">s</text><text xml:space="preserve" font-family="Helvetica-Light,Helvetica" font-size="28.5" fill="#000000" transform="matrix(1.00, 0.00, -0.00, -1.00, 265.5, 185.5)"> </text><text xml:space="preserve" font-family="Helvetica-Light,Helvetica" font-size="28.5" fill="#000000" transform="matrix(1.00, 0.00, -0.00, -1.00, 273.4, 185.5)">c</text><text xml:space="preserve" font-family="Helvetica-Light,Helvetica" font-size="28.5" fill="#000000" transform="matrix(1.00, 0.00, -0.00, -1.00, 289.2, 185.5)">l</text><text xml:space="preserve" font-family="Helvetica-Light,Helvetica" font-size="28.5" fill="#000000" transform="matrix(1.00, 0.00, -0.00, -1.00, 295.5, 185.5)">o</text><text xml:space="preserve" font-family="Helvetica-Light,Helvetica" font-size="28.5" fill="#000000" transform="matrix(1.00, 0.00, -0.00, -1.00, 311.4, 185.5)">s</text><text xml:space="preserve" font-family="Helvetica-Light,Helvetica" font-size="28.5" fill="#000000" transform="matrix(1.00, 0.00, -0.00, -1.00, 325.6, 185.5)">e</text><text xml:space="preserve" font-family="Helvetica-Light,Helvetica" font-size="28.5" fill="#000000" transform="matrix(1.00, 0.00, -0.00, -1.00, 341.4, 185.5)">s</text><text xml:space="preserve" font-family="Helvetica-Light,Helvetica" font-size="28.5" fill="#000000" transform="matrix(1.00, 0.00, -0.00, -1.00, 355.7, 185.5)">t</text><text xml:space="preserve" font-family="Helvetica-Light,Helvetica" font-size="28.5" fill="#000000" transform="matrix(1.00, 0.00, -0.00, -1.00, 363.6, 185.5)"> </text><text xml:space="preserve" font-family="Helvetica-Light,Helvetica" font-size="28.5" fill="#000000" transform="matrix(1.00, 0.00, -0.00, -1.00, 371.5, 185.5)">t</text><text xml:space="preserve" font-family="Helvetica-Light,Helvetica" font-size="28.5" fill="#000000" transform="matrix(1.00, 0.00, -0.00, -1.00, 379.4, 185.5)">o</text><text xml:space="preserve" font-family="Helvetica-Light,Helvetica" font-size="28.5" fill="#000000" transform="matrix(1.00, 0.00, -0.00, -1.00, 395.3, 185.5)"> </text><text xml:space="preserve" font-family="Helvetica-Light,Helvetica" font-size="28.5" fill="#000000" transform="matrix(1.00, 0.00, -0.00, -1.00, 403.2, 185.5)">i</text><text xml:space="preserve" font-family="Helvetica-Light,Helvetica" font-size="28.5" fill="#000000" transform="matrix(1.00, 0.00, -0.00, -1.00, 409.5, 185.5)">t</text><text xml:space="preserve" font-family="Helvetica-Light,Helvetica" font-size="28.5" fill="#000000" transform="matrix(1.00, 0.00, -0.00, -1.00, 417.4, 185.5)">’</text><text xml:space="preserve" font-family="Helvetica-Light,Helvetica" font-size="28.5" fill="#000000" transform="matrix(1.00, 0.00, -0.00, -1.00, 421.6, 185.5)">s</text><text xml:space="preserve" font-family="Helvetica-Light,Helvetica" font-size="28.5" fill="#000000" transform="matrix(1.00, 0.00, -0.00, -1.00, 435.9, 185.5)"> </text><text xml:space="preserve" font-family="Helvetica-Light,Helvetica" font-size="28.5" fill="#000000" transform="matrix(1.00, 0.00, -0.00, -1.00, 81.6, 150.5)">e</text><text xml:space="preserve" font-family="Helvetica-Light,Helvetica" font-size="28.5" fill="#000000" transform="matrix(1.00, 0.00, -0.00, -1.00, 97.4, 150.5)">n</text><text xml:space="preserve" font-family="Helvetica-Light,Helvetica" font-size="28.5" fill="#000000" transform="matrix(1.00, 0.00, -0.00, -1.00, 113.3, 150.5)">c</text><text xml:space="preserve" font-family="Helvetica-Light,Helvetica" font-size="28.5" fill="#000000" transform="matrix(1.00, 0.00, -0.00, -1.00, 129.1, 150.5)">l</text><text xml:space="preserve" font-family="Helvetica-Light,Helvetica" font-size="28.5" fill="#000000" transform="matrix(1.00, 0.00, -0.00, -1.00, 135.4, 150.5)">o</text><text xml:space="preserve" font-family="Helvetica-Light,Helvetica" font-size="28.5" fill="#000000" transform="matrix(1.00, 0.00, -0.00, -1.00, 151.3, 150.5)">s</text><text xml:space="preserve" font-family="Helvetica-Light,Helvetica" font-size="28.5" fill="#000000" transform="matrix(1.00, 0.00, -0.00, -1.00, 165.5, 150.5)">e</text><text xml:space="preserve" font-family="Helvetica-Light,Helvetica" font-size="28.5" fill="#000000" transform="matrix(1.00, 0.00, -0.00, -1.00, 181.3, 150.5)">d</text><text xml:space="preserve" font-family="Helvetica-Light,Helvetica" font-size="28.5" fill="#000000" transform="matrix(1.00, 0.00, -0.00, -1.00, 198.7, 150.5)"> </text><text xml:space="preserve" font-family="Helvetica-Light,Helvetica" font-size="28.5" fill="#000000" transform="matrix(1.00, 0.00, -0.00, -1.00, 206.7, 150.5)">o</text><text xml:space="preserve" font-family="Helvetica-Light,Helvetica" font-size="28.5" fill="#000000" transform="matrix(1.00, 0.00, -0.00, -1.00, 222.5, 150.5)">r</text><text xml:space="preserve" font-family="Helvetica-Light,Helvetica" font-size="28.5" fill="#000000" transform="matrix(1.00, 0.00, -0.00, -1.00, 232.0, 150.5)">i</text><text xml:space="preserve" font-family="Helvetica-Light,Helvetica" font-size="28.5" fill="#000000" transform="matrix(1.00, 0.00, -0.00, -1.00, 238.3, 150.5)">g</text><text xml:space="preserve" font-family="Helvetica-Light,Helvetica" font-size="28.5" fill="#000000" transform="matrix(1.00, 0.00, -0.00, -1.00, 255.7, 150.5)">i</text><text xml:space="preserve" font-family="Helvetica-Light,Helvetica" font-size="28.5" fill="#000000" transform="matrix(1.00, 0.00, -0.00, -1.00, 262.0, 150.5)">n</text><text xml:space="preserve" font-family="Helvetica-Light,Helvetica" font-size="28.5" fill="#000000" transform="matrix(1.00, 0.00, -0.00, -1.00, 277.9, 150.5)">a</text><text xml:space="preserve" font-family="Helvetica-Light,Helvetica" font-size="28.5" fill="#000000" transform="matrix(1.00, 0.00, -0.00, -1.00, 293.7, 150.5)">l</text><text xml:space="preserve" font-family="Helvetica-Light,Helvetica" font-size="28.5" fill="#000000" transform="matrix(1.00, 0.00, -0.00, -1.00, 300.0, 150.5)"> </text><text xml:space="preserve" font-family="Helvetica-Light,Helvetica" font-size="28.5" fill="#000000" transform="matrix(1.00, 0.00, -0.00, -1.00, 307.9, 150.5)">p</text><text xml:space="preserve" font-family="Helvetica-Light,Helvetica" font-size="28.5" fill="#000000" transform="matrix(1.00, 0.00, -0.00, -1.00, 325.3, 150.5)">o</text><text xml:space="preserve" font-family="Helvetica-Light,Helvetica" font-size="28.5" fill="#000000" transform="matrix(1.00, 0.00, -0.00, -1.00, 341.2, 150.5)">i</text><text xml:space="preserve" font-family="Helvetica-Light,Helvetica" font-size="28.5" fill="#000000" transform="matrix(1.00, 0.00, -0.00, -1.00, 347.5, 150.5)">n</text><text xml:space="preserve" font-family="Helvetica-Light,Helvetica" font-size="28.5" fill="#000000" transform="matrix(1.00, 0.00, -0.00, -1.00, 363.3, 150.5)">t</text><text xml:space="preserve" font-family="Helvetica-Light,Helvetica" font-size="28.5" fill="#000000" transform="matrix(1.00, 0.00, -0.00, -1.00, 371.2, 150.5)"> </text><text xml:space="preserve" font-family="Helvetica-Light,Helvetica" font-size="28.5" fill="#000000" transform="matrix(1.00, 0.00, -0.00, -1.00, 379.2, 150.5)">t</text><text xml:space="preserve" font-family="Helvetica-Light,Helvetica" font-size="28.5" fill="#000000" transform="matrix(1.00, 0.00, -0.00, -1.00, 387.1, 150.5)">h</text><text xml:space="preserve" font-family="Helvetica-Light,Helvetica" font-size="28.5" fill="#000000" transform="matrix(1.00, 0.00, -0.00, -1.00, 402.9, 150.5)">a</text><text xml:space="preserve" font-family="Helvetica-Light,Helvetica" font-size="28.5" fill="#000000" transform="matrix(1.00, 0.00, -0.00, -1.00, 418.7, 150.5)">n</text><text xml:space="preserve" font-family="Helvetica-Light,Helvetica" font-size="28.5" fill="#000000" transform="matrix(1.00, 0.00, -0.00, -1.00, 434.6, 150.5)"> </text><text xml:space="preserve" font-family="Helvetica-Light,Helvetica" font-size="28.5" fill="#000000" transform="matrix(1.00, 0.00, -0.00, -1.00, 442.5, 150.5)">a</text><text xml:space="preserve" font-family="Helvetica-Light,Helvetica" font-size="28.5" fill="#000000" transform="matrix(1.00, 0.00, -0.00, -1.00, 458.3, 150.5)">n</text><text xml:space="preserve" font-family="Helvetica-Light,Helvetica" font-size="28.5" fill="#000000" transform="matrix(1.00, 0.00, -0.00, -1.00, 474.2, 150.5)">y</text><text xml:space="preserve" font-family="Helvetica-Light,Helvetica" font-size="28.5" fill="#000000" transform="matrix(1.00, 0.00, -0.00, -1.00, 488.4, 150.5)"> </text><text xml:space="preserve" font-family="Helvetica-Light,Helvetica" font-size="28.5" fill="#000000" transform="matrix(1.00, 0.00, -0.00, -1.00, 213.0, 115.5)">o</text><text xml:space="preserve" font-family="Helvetica-Light,Helvetica" font-size="28.5" fill="#000000" transform="matrix(1.00, 0.00, -0.00, -1.00, 228.8, 115.5)">t</text><text xml:space="preserve" font-family="Helvetica-Light,Helvetica" font-size="28.5" fill="#000000" transform="matrix(1.00, 0.00, -0.00, -1.00, 236.7, 115.5)">h</text><text xml:space="preserve" font-family="Helvetica-Light,Helvetica" font-size="28.5" fill="#000000" transform="matrix(1.00, 0.00, -0.00, -1.00, 252.6, 115.5)">e</text><text xml:space="preserve" font-family="Helvetica-Light,Helvetica" font-size="28.5" fill="#000000" transform="matrix(1.00, 0.00, -0.00, -1.00, 268.4, 115.5)">r</text><text xml:space="preserve" font-family="Helvetica-Light,Helvetica" font-size="28.5" fill="#000000" transform="matrix(1.00, 0.00, -0.00, -1.00, 277.9, 115.5)"> </text><text xml:space="preserve" font-family="Helvetica-Light,Helvetica" font-size="28.5" fill="#000000" transform="matrix(1.00, 0.00, -0.00, -1.00, 285.8, 115.5)">p</text><text xml:space="preserve" font-family="Helvetica-Light,Helvetica" font-size="28.5" fill="#000000" transform="matrix(1.00, 0.00, -0.00, -1.00, 303.2, 115.5)">o</text><text xml:space="preserve" font-family="Helvetica-Light,Helvetica" font-size="28.5" fill="#000000" transform="matrix(1.00, 0.00, -0.00, -1.00, 319.0, 115.5)">i</text><text xml:space="preserve" font-family="Helvetica-Light,Helvetica" font-size="28.5" fill="#000000" transform="matrix(1.00, 0.00, -0.00, -1.00, 325.4, 115.5)">n</text><text xml:space="preserve" font-family="Helvetica-Light,Helvetica" font-size="28.5" fill="#000000" transform="matrix(1.00, 0.00, -0.00, -1.00, 341.2, 115.5)">t</text><text xml:space="preserve" font-family="Helvetica-Light,Helvetica" font-size="28.5" fill="#000000" transform="matrix(1.00, 0.00, -0.00, -1.00, 349.1, 115.5)">.</text><text xml:space="preserve" font-family="Helvetica-Light,Helvetica" font-size="20.0" fill="#000000" transform="matrix(1.00, 0.00, -0.00, -1.00, 246.7, 25.1)">S</text><text xml:space="preserve" font-family="Helvetica-Light,Helvetica" font-size="20.0" fill="#000000" transform="matrix(1.00, 0.00, -0.00, -1.00, 259.0, 25.1)">o</text><text xml:space="preserve" font-family="Helvetica-Light,Helvetica" font-size="20.0" fill="#000000" transform="matrix(1.00, 0.00, -0.00, -1.00, 270.1, 25.1)">u</text><text xml:space="preserve" font-family="Helvetica-Light,Helvetica" font-size="20.0" fill="#000000" transform="matrix(1.00, 0.00, -0.00, -1.00, 281.2, 25.1)">r</text><text xml:space="preserve" font-family="Helvetica-Light,Helvetica" font-size="20.0" fill="#000000" transform="matrix(1.00, 0.00, -0.00, -1.00, 287.5, 25.1)">c</text><text xml:space="preserve" font-family="Helvetica-Light,Helvetica" font-size="20.0" fill="#000000" transform="matrix(1.00, 0.00, -0.00, -1.00, 298.6, 25.1)">e</text><text xml:space="preserve" font-family="Helvetica-Light,Helvetica" font-size="20.0" fill="#000000" transform="matrix(1.00, 0.00, -0.00, -1.00, 309.7, 25.1)">:</text><text xml:space="preserve" font-family="Helvetica-Light,Helvetica" font-size="20.0" fill="#000000" transform="matrix(1.00, 0.00, -0.00, -1.00, 315.3, 25.1)"> </text><text xml:space="preserve" font-family="Helvetica-Light,Helvetica" font-size="20.0" fill="#000000" transform="matrix(1.00, 0.00, -0.00, -1.00, 320.9, 25.1)">h</text><text xml:space="preserve" font-family="Helvetica-Light,Helvetica" font-size="20.0" fill="#000000" transform="matrix(1.00, 0.00, -0.00, -1.00, 332.0, 25.1)">t</text><text xml:space="preserve" font-family="Helvetica-Light,Helvetica" font-size="20.0" fill="#000000" transform="matrix(1.00, 0.00, -0.00, -1.00, 337.5, 25.1)">t</text><text xml:space="preserve" font-family="Helvetica-Light,Helvetica" font-size="20.0" fill="#000000" transform="matrix(1.00, 0.00, -0.00, -1.00, 343.1, 25.1)">p</text><text xml:space="preserve" font-family="Helvetica-Light,Helvetica" font-size="20.0" fill="#000000" transform="matrix(1.00, 0.00, -0.00, -1.00, 355.3, 25.1)">:</text><text xml:space="preserve" font-family="Helvetica-Light,Helvetica" font-size="20.0" fill="#000000" transform="matrix(1.00, 0.00, -0.00, -1.00, 360.9, 25.1)">/</text><text xml:space="preserve" font-family="Helvetica-Light,Helvetica" font-size="20.0" fill="#000000" transform="matrix(1.00, 0.00, -0.00, -1.00, 366.4, 25.1)">/</text><text xml:space="preserve" font-family="Helvetica-Light,Helvetica" font-size="20.0" fill="#000000" transform="matrix(1.00, 0.00, -0.00, -1.00, 372.0, 25.1)">m</text><text xml:space="preserve" font-family="Helvetica-Light,Helvetica" font-size="20.0" fill="#000000" transform="matrix(1.00, 0.00, -0.00, -1.00, 388.7, 25.1)">a</text><text xml:space="preserve" font-family="Helvetica-Light,Helvetica" font-size="20.0" fill="#000000" transform="matrix(1.00, 0.00, -0.00, -1.00, 399.8, 25.1)">t</text><text xml:space="preserve" font-family="Helvetica-Light,Helvetica" font-size="20.0" fill="#000000" transform="matrix(1.00, 0.00, -0.00, -1.00, 405.3, 25.1)">h</text><text xml:space="preserve" font-family="Helvetica-Light,Helvetica" font-size="20.0" fill="#000000" transform="matrix(1.00, 0.00, -0.00, -1.00, 416.5, 25.1)">w</text><text xml:space="preserve" font-family="Helvetica-Light,Helvetica" font-size="20.0" fill="#000000" transform="matrix(1.00, 0.00, -0.00, -1.00, 430.9, 25.1)">o</text><text xml:space="preserve" font-family="Helvetica-Light,Helvetica" font-size="20.0" fill="#000000" transform="matrix(1.00, 0.00, -0.00, -1.00, 442.0, 25.1)">r</text><text xml:space="preserve" font-family="Helvetica-Light,Helvetica" font-size="20.0" fill="#000000" transform="matrix(1.00, 0.00, -0.00, -1.00, 448.7, 25.1)">l</text><text xml:space="preserve" font-family="Helvetica-Light,Helvetica" font-size="20.0" fill="#000000" transform="matrix(1.00, 0.00, -0.00, -1.00, 453.1, 25.1)">d</text><text xml:space="preserve" font-family="Helvetica-Light,Helvetica" font-size="20.0" fill="#000000" transform="matrix(1.00, 0.00, -0.00, -1.00, 465.3, 25.1)">.</text><text xml:space="preserve" font-family="Helvetica-Light,Helvetica" font-size="20.0" fill="#000000" transform="matrix(1.00, 0.00, -0.00, -1.00, 470.9, 25.1)">w</text><text xml:space="preserve" font-family="Helvetica-Light,Helvetica" font-size="20.0" fill="#000000" transform="matrix(1.00, 0.00, -0.00, -1.00, 485.3, 25.1)">o</text><text xml:space="preserve" font-family="Helvetica-Light,Helvetica" font-size="20.0" fill="#000000" transform="matrix(1.00, 0.00, -0.00, -1.00, 496.5, 25.1)">l</text><text xml:space="preserve" font-family="Helvetica-Light,Helvetica" font-size="20.0" fill="#000000" transform="matrix(1.00, 0.00, -0.00, -1.00, 500.9, 25.1)">f</text><text xml:space="preserve" font-family="Helvetica-Light,Helvetica" font-size="20.0" fill="#000000" transform="matrix(1.00, 0.00, -0.00, -1.00, 506.5, 25.1)">r</text><text xml:space="preserve" font-family="Helvetica-Light,Helvetica" font-size="20.0" fill="#000000" transform="matrix(1.00, 0.00, -0.00, -1.00, 513.1, 25.1)">a</text><text xml:space="preserve" font-family="Helvetica-Light,Helvetica" font-size="20.0" fill="#000000" transform="matrix(1.00, 0.00, -0.00, -1.00, 524.2, 25.1)">m</text><text xml:space="preserve" font-family="Helvetica-Light,Helvetica" font-size="20.0" fill="#000000" transform="matrix(1.00, 0.00, -0.00, -1.00, 540.9, 25.1)">.</text><text xml:space="preserve" font-family="Helvetica-Light,Helvetica" font-size="20.0" fill="#000000" transform="matrix(1.00, 0.00, -0.00, -1.00, 546.5, 25.1)">c</text><text xml:space="preserve" font-family="Helvetica-Light,Helvetica" font-size="20.0" fill="#000000" transform="matrix(1.00, 0.00, -0.00, -1.00, 557.6, 25.1)">o</text><text xml:space="preserve" font-family="Helvetica-Light,Helvetica" font-size="20.0" fill="#000000" transform="matrix(1.00, 0.00, -0.00, -1.00, 568.7, 25.1)">m</text><text xml:space="preserve" font-family="Helvetica-Light,Helvetica" font-size="20.0" fill="#000000" transform="matrix(1.00, 0.00, -0.00, -1.00, 585.4, 25.1)">/</text><text xml:space="preserve" font-family="Helvetica-Light,Helvetica" font-size="20.0" fill="#000000" transform="matrix(1.00, 0.00, -0.00, -1.00, 590.9, 25.1)">V</text><text xml:space="preserve" font-family="Helvetica-Light,Helvetica" font-size="20.0" fill="#000000" transform="matrix(1.00, 0.00, -0.00, -1.00, 602.0, 25.1)">o</text><text xml:space="preserve" font-family="Helvetica-Light,Helvetica" font-size="20.0" fill="#000000" transform="matrix(1.00, 0.00, -0.00, -1.00, 613.2, 25.1)">r</text><text xml:space="preserve" font-family="Helvetica-Light,Helvetica" font-size="20.0" fill="#000000" transform="matrix(1.00, 0.00, -0.00, -1.00, 619.5, 25.1)">o</text><text xml:space="preserve" font-family="Helvetica-Light,Helvetica" font-size="20.0" fill="#000000" transform="matrix(1.00, 0.00, -0.00, -1.00, 630.6, 25.1)">n</text><text xml:space="preserve" font-family="Helvetica-Light,Helvetica" font-size="20.0" fill="#000000" transform="matrix(1.00, 0.00, -0.00, -1.00, 641.7, 25.1)">o</text><text xml:space="preserve" font-family="Helvetica-Light,Helvetica" font-size="20.0" fill="#000000" transform="matrix(1.00, 0.00, -0.00, -1.00, 652.8, 25.1)">i</text><text xml:space="preserve" font-family="Helvetica-Light,Helvetica" font-size="20.0" fill="#000000" transform="matrix(1.00, 0.00, -0.00, -1.00, 657.3, 25.1)">D</text><text xml:space="preserve" font-family="Helvetica-Light,Helvetica" font-size="20.0" fill="#000000" transform="matrix(1.00, 0.00, -0.00, -1.00, 671.7, 25.1)">i</text><text xml:space="preserve" font-family="Helvetica-Light,Helvetica" font-size="20.0" fill="#000000" transform="matrix(1.00, 0.00, -0.00, -1.00, 676.1, 25.1)">a</text><text xml:space="preserve" font-family="Helvetica-Light,Helvetica" font-size="20.0" fill="#000000" transform="matrix(1.00, 0.00, -0.00, -1.00, 687.3, 25.1)">g</text><text xml:space="preserve" font-family="Helvetica-Light,Helvetica" font-size="20.0" fill="#000000" transform="matrix(1.00, 0.00, -0.00, -1.00, 699.5, 25.1)">r</text><text xml:space="preserve" font-family="Helvetica-Light,Helvetica" font-size="20.0" fill="#000000" transform="matrix(1.00, 0.00, -0.00, -1.00, 706.1, 25.1)">a</text><text xml:space="preserve" font-family="Helvetica-Light,Helvetica" font-size="20.0" fill="#000000" transform="matrix(1.00, 0.00, -0.00, -1.00, 717.3, 25.1)">m</text><text xml:space="preserve" font-family="Helvetica-Light,Helvetica" font-size="20.0" fill="#000000" transform="matrix(1.00, 0.00, -0.00, -1.00, 733.9, 25.1)">.</text><text xml:space="preserve" font-family="Helvetica-Light,Helvetica" font-size="20.0" fill="#000000" transform="matrix(1.00, 0.00, -0.00, -1.00, 739.5, 25.1)">h</text><text xml:space="preserve" font-family="Helvetica-Light,Helvetica" font-size="20.0" fill="#000000" transform="matrix(1.00, 0.00, -0.00, -1.00, 750.6, 25.1)">t</text><text xml:space="preserve" font-family="Helvetica-Light,Helvetica" font-size="20.0" fill="#000000" transform="matrix(1.00, 0.00, -0.00, -1.00, 756.2, 25.1)">m</text><text xml:space="preserve" font-family="Helvetica-Light,Helvetica" font-size="20.0" fill="#000000" transform="matrix(1.00, 0.00, -0.00, -1.00, 772.8, 25.1)">l</text><g><clipPath id="clip0x608000abb420"><path d="M 319.9 22.1 L 777.3 22.1 L 777.3 25.1 L 319.9 25.1 Z M 319.9 22.1 "></path></clipPath><g clip-path="url(#clip0x608000abb420)"><path d="M 78.6 24.9 L 535.0 24.9 " fill="none" stroke="#000000" stroke-width="1.00" transform="matrix(1.00, 0.00, 0.00, -1.00, 242.2, 48.5)"></path></g></g><path d="M 0.0 0.0 L 71.0 0.0 L 72.0 0.0 " fill="none" stroke="#000000" stroke-width="2.00" transform="matrix(0.91, 0.41, 0.41, -0.91, 451.0, 367.8)"></path><path d="M 517.8 392.3 L 524.6 400.6 L 513.9 401.1 Z M 517.8 392.3 " fill="#000000"></path><path d="M 0.0 0.0 L 225.8 0.0 L 226.8 0.0 " fill="none" stroke="#000000" stroke-width="2.00" transform="matrix(0.95, 0.31, 0.31, -0.95, 450.9, 333.0)"></path><path d="M 667.1 398.7 L 674.7 406.2 L 664.1 407.8 Z M 667.1 398.7 " fill="#000000"></path><path d="M 0.0 0.0 L 195.8 0.0 L 196.8 0.0 " fill="none" stroke="#000000" stroke-width="2.00" transform="matrix(0.99, 0.15, 0.15, -0.99, 454.0, 284.0)"></path><path d="M 648.4 307.8 L 657.2 314.0 L 647.0 317.3 Z M 648.4 307.8 " fill="#000000"></path></g></svg>