<?xml version="1.0" encoding="UTF-8" standalone="no"?><svg xmlns="http://www.w3.org/2000/svg" xmlns:xlink="http://www.w3.org/1999/xlink" clip-rule="evenodd" stroke-miterlimit="10" viewBox="0 0 1024 768"><desc>SVG generated by Keynote</desc><defs></defs><g transform="matrix(1.00, 0.00, -0.00, -1.00, 0.0, 768.0)"><path d="M 0.0 768.0 L 1024.0 768.0 L 1024.0 0.0 L 0.0 0.0 Z M 0.0 768.0 " fill="#FEFFFF"></path><text xml:space="preserve" font-family="Helvetica-Light,Helvetica" font-size="80.0" fill="#000000" transform="matrix(1.00, 0.00, -0.00, -1.00, 261.6, 549.7)">M</text><text xml:space="preserve" font-family="Helvetica-Light,Helvetica" font-size="80.0" fill="#000000" transform="matrix(1.00, 0.00, -0.00, -1.00, 328.2, 549.7)">a</text><text xml:space="preserve" font-family="Helvetica-Light,Helvetica" font-size="80.0" fill="#000000" transform="matrix(1.00, 0.00, -0.00, -1.00, 372.7, 549.7)">r</text><text xml:space="preserve" font-family="Helvetica-Light,Helvetica" font-size="80.0" fill="#000000" transform="matrix(1.00, 0.00, -0.00, -1.00, 399.4, 549.7)">k</text><text xml:space="preserve" font-family="Helvetica-Light,Helvetica" font-size="80.0" fill="#000000" transform="matrix(1.00, 0.00, -0.00, -1.00, 439.4, 549.7)"> </text><text xml:space="preserve" font-family="Helvetica-Light,Helvetica" font-size="80.0" fill="#000000" transform="matrix(1.00, 0.00, -0.00, -1.00, 461.6, 549.7)">D</text><text xml:space="preserve" font-family="Helvetica-Light,Helvetica" font-size="80.0" fill="#000000" transform="matrix(1.00, 0.00, -0.00, -1.00, 519.4, 549.7)">i</text><text xml:space="preserve" font-family="Helvetica-Light,Helvetica" font-size="80.0" fill="#000000" transform="matrix(1.00, 0.00, -0.00, -1.00, 537.1, 549.7)">M</text><text xml:space="preserve" font-family="Helvetica-Light,Helvetica" font-size="80.0" fill="#000000" transform="matrix(1.00, 0.00, -0.00, -1.00, 603.8, 549.7)">a</text><text xml:space="preserve" font-family="Helvetica-Light,Helvetica" font-size="80.0" fill="#000000" transform="matrix(1.00, 0.00, -0.00, -1.00, 648.2, 549.7)">r</text><text xml:space="preserve" font-family="Helvetica-Light,Helvetica" font-size="80.0" fill="#000000" transform="matrix(1.00, 0.00, -0.00, -1.00, 673.4, 549.7)">c</text><text xml:space="preserve" font-family="Helvetica-Light,Helvetica" font-size="80.0" fill="#000000" transform="matrix(1.00, 0.00, -0.00, -1.00, 717.9, 549.7)">o</text><text xml:space="preserve" font-family="Helvetica-Light,Helvetica" font-size="32.0" fill="#000000" transform="matrix(1.00, 0.00, -0.00, -1.00, 322.3, 495.4)">U</text><text xml:space="preserve" font-family="Helvetica-Light,Helvetica" font-size="32.0" fill="#000000" transform="matrix(1.00, 0.00, -0.00, -1.00, 345.4, 495.4)">I</text><text xml:space="preserve" font-family="Helvetica-Light,Helvetica" font-size="32.0" fill="#000000" transform="matrix(1.00, 0.00, -0.00, -1.00, 354.3, 495.4)"> </text><text xml:space="preserve" font-family="Helvetica-Light,Helvetica" font-size="32.0" fill="#000000" transform="matrix(1.00, 0.00, -0.00, -1.00, 363.2, 495.4)">E</text><text xml:space="preserve" font-family="Helvetica-Light,Helvetica" font-size="32.0" fill="#000000" transform="matrix(1.00, 0.00, -0.00, -1.00, 382.7, 495.4)">n</text><text xml:space="preserve" font-family="Helvetica-Light,Helvetica" font-size="32.0" fill="#000000" transform="matrix(1.00, 0.00, -0.00, -1.00, 400.5, 495.4)">g</text><text xml:space="preserve" font-family="Helvetica-Light,Helvetica" font-size="32.0" fill="#000000" transform="matrix(1.00, 0.00, -0.00, -1.00, 420.0, 495.4)">i</text><text xml:space="preserve" font-family="Helvetica-Light,Helvetica" font-size="32.0" fill="#000000" transform="matrix(1.00, 0.00, -0.00, -1.00, 427.2, 495.4)">n</text><text xml:space="preserve" font-family="Helvetica-Light,Helvetica" font-size="32.0" fill="#000000" transform="matrix(1.00, 0.00, -0.00, -1.00, 444.9, 495.4)">e</text><text xml:space="preserve" font-family="Helvetica-Light,Helvetica" font-size="32.0" fill="#000000" transform="matrix(1.00, 0.00, -0.00, -1.00, 462.7, 495.4)">e</text><text xml:space="preserve" font-family="Helvetica-Light,Helvetica" font-size="32.0" fill="#000000" transform="matrix(1.00, 0.00, -0.00, -1.00, 480.5, 495.4)">r</text><text xml:space="preserve" font-family="Helvetica-Light,Helvetica" font-size="32.0" fill="#000000" transform="matrix(1.00, 0.00, -0.00, -1.00, 491.2, 495.4)"> </text><text xml:space="preserve" font-family="Helvetica-Light,Helvetica" font-size="32.0" fill="#000000" transform="matrix(1.00, 0.00, -0.00, -1.00, 500.1, 495.4)">@</text><text xml:space="preserve" font-family="Helvetica-Light,Helvetica" font-size="32.0" fill="#000000" transform="matrix(1.00, 0.00, -0.00, -1.00, 525.7, 495.4)">b</text><text xml:space="preserve" font-family="Helvetica-Light,Helvetica" font-size="32.0" fill="#000000" transform="matrix(1.00, 0.00, -0.00, -1.00, 545.2, 495.4)">a</text><text xml:space="preserve" font-family="Helvetica-Light,Helvetica" font-size="32.0" fill="#000000" transform="matrix(1.00, 0.00, -0.00, -1.00, 563.0, 495.4)">z</text><text xml:space="preserve" font-family="Helvetica-Light,Helvetica" font-size="32.0" fill="#000000" transform="matrix(1.00, 0.00, -0.00, -1.00, 579.0, 495.4)">a</text><text xml:space="preserve" font-family="Helvetica-Light,Helvetica" font-size="32.0" fill="#000000" transform="matrix(1.00, 0.00, -0.00, -1.00, 596.8, 495.4)">a</text><text xml:space="preserve" font-family="Helvetica-Light,Helvetica" font-size="32.0" fill="#000000" transform="matrix(1.00, 0.00, -0.00, -1.00, 614.6, 495.4)">r</text><text xml:space="preserve" font-family="Helvetica-Light,Helvetica" font-size="32.0" fill="#000000" transform="matrix(1.00, 0.00, -0.00, -1.00, 625.3, 495.4)">v</text><text xml:space="preserve" font-family="Helvetica-Light,Helvetica" font-size="32.0" fill="#000000" transform="matrix(1.00, 0.00, -0.00, -1.00, 641.3, 495.4)">o</text><text xml:space="preserve" font-family="Helvetica-Light,Helvetica" font-size="32.0" fill="#000000" transform="matrix(1.00, 0.00, -0.00, -1.00, 659.1, 495.4)">i</text><text xml:space="preserve" font-family="Helvetica-Light,Helvetica" font-size="32.0" fill="#000000" transform="matrix(1.00, 0.00, -0.00, -1.00, 666.2, 495.4)">c</text><text xml:space="preserve" font-family="Helvetica-Light,Helvetica" font-size="32.0" fill="#000000" transform="matrix(1.00, 0.00, -0.00, -1.00, 684.0, 495.4)">e</text><text xml:space="preserve" font-family="Helvetica-Light,Helvetica" font-size="32.0" fill="#000000" transform="matrix(1.00, 0.00, -0.00, -1.00, 701.7, 495.4)"> </text><text xml:space="preserve" font-family="Helvetica-Light,Helvetica" font-size="32.0" fill="#000000" transform="matrix(1.00, 0.00, -0.00, -1.00, 440.0, 457.4)">A</text><text xml:space="preserve" font-family="Helvetica-Light,Helvetica" font-size="32.0" fill="#000000" transform="matrix(1.00, 0.00, -0.00, -1.00, 461.3, 457.4)">u</text><text xml:space="preserve" font-family="Helvetica-Light,Helvetica" font-size="32.0" fill="#000000" transform="matrix(1.00, 0.00, -0.00, -1.00, 479.1, 457.4)">s</text><text xml:space="preserve" font-family="Helvetica-Light,Helvetica" font-size="32.0" fill="#000000" transform="matrix(1.00, 0.00, -0.00, -1.00, 495.1, 457.4)">t</text><text xml:space="preserve" font-family="Helvetica-Light,Helvetica" font-size="32.0" fill="#000000" transform="matrix(1.00, 0.00, -0.00, -1.00, 504.0, 457.4)">i</text><text xml:space="preserve" font-family="Helvetica-Light,Helvetica" font-size="32.0" fill="#000000" transform="matrix(1.00, 0.00, -0.00, -1.00, 511.1, 457.4)">n</text><text xml:space="preserve" font-family="Helvetica-Light,Helvetica" font-size="32.0" fill="#000000" transform="matrix(1.00, 0.00, -0.00, -1.00, 528.9, 457.4)">,</text><text xml:space="preserve" font-family="Helvetica-Light,Helvetica" font-size="32.0" fill="#000000" transform="matrix(1.00, 0.00, -0.00, -1.00, 537.8, 457.4)"> </text><text xml:space="preserve" font-family="Helvetica-Light,Helvetica" font-size="32.0" fill="#000000" transform="matrix(1.00, 0.00, -0.00, -1.00, 546.7, 457.4)">T</text><text xml:space="preserve" font-family="Helvetica-Light,Helvetica" font-size="32.0" fill="#000000" transform="matrix(1.00, 0.00, -0.00, -1.00, 564.5, 457.4)">X</text><image xlink:href="B25C80E3867EFC20D31B23F86E6FADAF.png" width="1052.00" height="1052.00" transform="matrix(0.28, 0.00, -0.00, -0.28, 366.9, 375.0)"></image></g></svg>