<?xml version="1.0" encoding="UTF-8" standalone="no"?><svg xmlns="http://www.w3.org/2000/svg" xmlns:xlink="http://www.w3.org/1999/xlink" clip-rule="evenodd" stroke-miterlimit="10" viewBox="0 0 1024 768"><desc>SVG generated by Keynote</desc><defs></defs><g transform="matrix(1.00, 0.00, -0.00, -1.00, 0.0, 768.0)"><path d="M 0.0 768.0 L 1024.0 768.0 L 1024.0 0.0 L 0.0 0.0 Z M 0.0 768.0 " fill="#FEFFFF"></path><g><clipPath id="clip0x6080010ab220"><path d="M 0.0 768.0 L 1024.0 768.0 L 1024.0 0.0 L 0.0 0.0 Z M 0.0 768.0 "></path></clipPath><g clip-path="url(#clip0x6080010ab220)"><image xlink:href="../../A61F5163-4942-47EC-A819-28E3B0738375/assets/6E0975EA2217BC698E1AEC5C9BF799ED.jpeg" width="1098.00" height="1024.00" transform="matrix(0.93, 0.00, -0.00, -0.93, 0.0, 861.3)"></image></g></g><image xlink:href="E622F0083DFD83B236612F323C558E2E.png" width="106.00" height="55.00" transform="matrix(1.00, 0.00, -0.00, -1.00, 459.0, 450.9)" opacity="0.50"></image><g><clipPath id="clip0x6080010ab3a0"><path d="M 535.0 418.0 L 535.0 400.8 L 562.0 425.4 L 535.0 449.9 L 535.0 433.0 L 462.0 433.0 L 462.0 418.0 Z M 535.1 418.0 "></path></clipPath><g clip-path="url(#clip0x6080010ab3a0)"><image xlink:href="8571D34485008A2B4E76C6C919FEC199.png" width="600.00" height="600.00" transform="matrix(0.50, 0.00, -0.00, -0.50, 462.0, 449.9)"></image></g></g><image xlink:href="../../1B574E1E-DB08-4FA9-885A-4B17956B8700/assets/E622F0083DFD83B236612F323C558E2E.png" width="106.00" height="55.00" transform="matrix(1.00, 0.00, -0.00, -1.00, 230.0, 522.9)" opacity="0.50"></image><g><clipPath id="clip0x6080010ab640"><path d="M 306.0 490.0 L 306.0 472.8 L 333.0 497.4 L 306.0 521.9 L 306.0 505.0 L 233.0 505.0 L 233.0 490.0 Z M 306.1 490.0 "></path></clipPath><g clip-path="url(#clip0x6080010ab640)"><image xlink:href="../../1B574E1E-DB08-4FA9-885A-4B17956B8700/assets/8571D34485008A2B4E76C6C919FEC199.png" width="600.00" height="600.00" transform="matrix(0.50, 0.00, -0.00, -0.50, 233.0, 521.9)"></image></g></g><image xlink:href="../../1B574E1E-DB08-4FA9-885A-4B17956B8700/assets/E622F0083DFD83B236612F323C558E2E.png" width="106.00" height="55.00" transform="matrix(1.00, 0.00, -0.00, -1.00, 508.0, 228.9)" opacity="0.50"></image><g><clipPath id="clip0x6080010ab940"><path d="M 584.0 196.0 L 584.0 178.8 L 611.0 203.4 L 584.0 227.9 L 584.0 211.0 L 511.0 211.0 L 511.0 196.0 Z M 584.1 196.0 "></path></clipPath><g clip-path="url(#clip0x6080010ab940)"><image xlink:href="../../1B574E1E-DB08-4FA9-885A-4B17956B8700/assets/8571D34485008A2B4E76C6C919FEC199.png" width="600.00" height="600.00" transform="matrix(0.50, 0.00, -0.00, -0.50, 511.0, 227.9)"></image></g></g><image xlink:href="../../1B574E1E-DB08-4FA9-885A-4B17956B8700/assets/E622F0083DFD83B236612F323C558E2E.png" width="106.00" height="55.00" transform="matrix(1.00, 0.00, -0.00, -1.00, 339.0, 196.9)" opacity="0.50"></image><g><clipPath id="clip0x6080010abbe0"><path d="M 415.0 164.0 L 415.0 146.8 L 442.0 171.4 L 415.0 195.9 L 415.0 179.0 L 342.0 179.0 L 342.0 164.0 Z M 415.1 164.0 "></path></clipPath><g clip-path="url(#clip0x6080010abbe0)"><image xlink:href="../../1B574E1E-DB08-4FA9-885A-4B17956B8700/assets/8571D34485008A2B4E76C6C919FEC199.png" width="600.00" height="600.00" transform="matrix(0.50, 0.00, -0.00, -0.50, 342.0, 195.9)"></image></g></g><image xlink:href="../../1B574E1E-DB08-4FA9-885A-4B17956B8700/assets/E622F0083DFD83B236612F323C558E2E.png" width="106.00" height="55.00" transform="matrix(1.00, 0.00, -0.00, -1.00, 693.0, 303.9)" opacity="0.50"></image><g><clipPath id="clip0x6080010abee0"><path d="M 769.0 271.0 L 769.0 253.8 L 796.0 278.4 L 769.0 302.9 L 769.0 286.0 L 696.0 286.0 L 696.0 271.0 Z M 769.1 271.0 "></path></clipPath><g clip-path="url(#clip0x6080010abee0)"><image xlink:href="../../1B574E1E-DB08-4FA9-885A-4B17956B8700/assets/8571D34485008A2B4E76C6C919FEC199.png" width="600.00" height="600.00" transform="matrix(0.50, 0.00, -0.00, -0.50, 696.0, 302.9)"></image></g></g><image xlink:href="../../1B574E1E-DB08-4FA9-885A-4B17956B8700/assets/E622F0083DFD83B236612F323C558E2E.png" width="106.00" height="55.00" transform="matrix(1.00, 0.00, -0.00, -1.00, 230.0, 652.9)" opacity="0.50"></image><g><clipPath id="clip0x6000012af720"><path d="M 306.0 620.0 L 306.0 602.8 L 333.0 627.4 L 306.0 651.9 L 306.0 635.0 L 233.0 635.0 L 233.0 620.0 Z M 306.1 620.0 "></path></clipPath><g clip-path="url(#clip0x6000012af720)"><image xlink:href="../../1B574E1E-DB08-4FA9-885A-4B17956B8700/assets/8571D34485008A2B4E76C6C919FEC199.png" width="600.00" height="600.00" transform="matrix(0.50, 0.00, -0.00, -0.50, 233.0, 651.9)"></image></g></g></g></svg>